<svg width="214" height="80" viewBox="0 0 214 80" fill="none" xmlns="http://www.w3.org/2000/svg">
<g clip-path="url(#clip0_225_8)">
<path d="M51.0674 0H40.9678C37.0018 0 33.7866 3.22678 33.7866 7.20721V17.3434C33.7866 21.3238 37.0018 24.5506 40.9678 24.5506H51.0674C55.0335 24.5506 58.2486 21.3238 58.2486 17.3434V7.20721C58.2486 3.22678 55.0335 0 51.0674 0Z" fill="white"/>
<path d="M51.0674 26.9575H40.9678C37.0018 26.9575 33.7866 30.1843 33.7866 34.1647V44.3008C33.7866 48.2813 37.0018 51.508 40.9678 51.508H51.0674C55.0335 51.508 58.2486 48.2813 58.2486 44.3008V34.1647C58.2486 30.1843 55.0335 26.9575 51.0674 26.9575Z" fill="white"/>
<path d="M77.9276 26.9575H67.828C63.8619 26.9575 60.6468 30.1843 60.6468 34.1647V44.3008C60.6468 48.2813 63.8619 51.508 67.828 51.508H77.9276C81.8936 51.508 85.1088 48.2813 85.1088 44.3008V34.1647C85.1088 30.1843 81.8936 26.9575 77.9276 26.9575Z" fill="white"/>
<path d="M24.2072 26.9575H14.1076C10.1415 26.9575 6.92639 30.1843 6.92639 34.1647V44.3008C6.92639 48.2813 10.1415 51.508 14.1076 51.508H24.2072C28.1733 51.508 31.3884 48.2813 31.3884 44.3008V34.1647C31.3884 30.1843 28.1733 26.9575 24.2072 26.9575Z" fill="white"/>
<path d="M41.7776 16.5766L39.2039 8.50451H41.9959L44.0756 15.3196H42.6738L44.8799 8.50451H47.3732L49.4299 15.3196H48.0856L50.2572 8.50451H52.8309L50.2572 16.5766H47.3502L45.6727 10.9953H46.454L44.6846 16.5766H41.7776Z" fill="black"/>
<path d="M45.8958 43.7186C45.2217 43.7186 44.5706 43.6417 43.9425 43.4879C43.3144 43.3342 42.7973 43.1343 42.3914 42.8883L43.2646 40.9049C43.6476 41.1279 44.0727 41.3085 44.54 41.4468C45.0149 41.5776 45.4745 41.6429 45.9188 41.6429C46.1792 41.6429 46.3822 41.6275 46.5277 41.5968C46.6809 41.5583 46.792 41.5084 46.8609 41.4468C46.9299 41.3777 46.9644 41.2969 46.9644 41.2047C46.9644 41.0587 46.8839 40.9434 46.7231 40.8587C46.5622 40.7742 46.3477 40.705 46.0796 40.6512C45.8192 40.5897 45.5319 40.5282 45.2179 40.4667C44.9038 40.3975 44.5859 40.3091 44.2642 40.2014C43.9501 40.0938 43.6591 39.9516 43.391 39.7748C43.1305 39.598 42.9199 39.3674 42.759 39.0829C42.5982 38.7908 42.5177 38.4295 42.5177 37.9989C42.5177 37.4992 42.6556 37.0457 42.9314 36.6382C43.2148 36.2231 43.6323 35.8925 44.1838 35.6465C44.7429 35.4005 45.4362 35.2775 46.2635 35.2775C46.8073 35.2775 47.3435 35.3351 47.8721 35.4505C48.4006 35.5658 48.8755 35.7426 49.2968 35.9809L48.481 37.9528C48.0827 37.7529 47.6958 37.603 47.3205 37.5031C46.9529 37.4032 46.5928 37.3532 46.2405 37.3532C45.98 37.3532 45.7732 37.3762 45.62 37.4223C45.4668 37.4685 45.3558 37.53 45.2868 37.6068C45.2255 37.6837 45.1949 37.7683 45.1949 37.8605C45.1949 37.9989 45.2753 38.1104 45.4362 38.195C45.597 38.2719 45.8077 38.3372 46.0681 38.391C46.3362 38.4448 46.6273 38.5025 46.9414 38.564C47.2631 38.6255 47.5809 38.7101 47.895 38.8177C48.2091 38.9253 48.4963 39.0675 48.7568 39.2443C49.0249 39.4212 49.2394 39.6518 49.4002 39.9362C49.5611 40.2207 49.6415 40.5743 49.6415 40.9971C49.6415 41.4892 49.4997 41.9427 49.2164 42.3578C48.9406 42.7653 48.527 43.0959 47.9755 43.3495C47.4239 43.5956 46.7307 43.7186 45.8958 43.7186Z" fill="black"/>
<path d="M68.7864 43.5341V35.462H72.7507C73.6469 35.462 74.4354 35.6273 75.1176 35.9578C75.7991 36.2807 76.3312 36.742 76.7147 37.3416C77.0975 37.9413 77.2892 38.6562 77.2892 39.4865C77.2892 40.3245 77.0975 41.0471 76.7147 41.6544C76.3312 42.2541 75.7991 42.7192 75.1176 43.0497C74.4354 43.3726 73.6469 43.5341 72.7507 43.5341H68.7864ZM71.4981 41.4123H72.6358C73.0185 41.4123 73.3518 41.3392 73.6354 41.1932C73.9262 41.0471 74.1525 40.8319 74.3133 40.5474C74.4742 40.2553 74.5546 39.9016 74.5546 39.4865C74.5546 39.0791 74.4742 38.7331 74.3133 38.4487C74.1525 38.1643 73.9262 37.949 73.6354 37.8029C73.3518 37.6569 73.0185 37.5838 72.6358 37.5838H71.4981V41.4123Z" fill="black"/>
<path d="M14.3105 43.5341L17.8265 35.462H20.4921L24.0081 43.5341H21.2045L18.6078 36.7535H19.6649L17.0681 43.5341H14.3105ZM16.4017 42.1272L17.0911 40.1668H20.7909L21.4803 42.1272H16.4017Z" fill="black"/>
<path d="M7.71664 66.8864C6.79169 66.8864 6.07069 66.6356 5.55365 66.134C5.0366 65.6324 4.77808 64.9289 4.77808 64.0237V60.694H6.81179V63.9632C6.81179 64.4244 6.8951 64.7531 7.0617 64.9491C7.22832 65.1394 7.45237 65.2345 7.73388 65.2345C8.02112 65.2345 8.24518 65.1394 8.40604 64.9491C8.57264 64.7531 8.65594 64.4244 8.65594 63.9632V60.694H10.6552V64.0237C10.6552 64.9289 10.3967 65.6324 9.87962 66.134C9.36257 66.6356 8.64158 66.8864 7.71664 66.8864ZM13.3712 66.8345C12.969 66.8345 12.5726 66.7913 12.182 66.7048C11.7913 66.6183 11.4754 66.5059 11.2341 66.3675L11.7683 65.0788C11.9924 65.2115 12.2509 65.3152 12.5439 65.3902C12.8427 65.4651 13.1328 65.5026 13.4143 65.5026C13.6498 65.5026 13.8078 65.4825 13.8882 65.4421C13.9744 65.4017 14.0175 65.347 14.0175 65.2778C14.0175 65.2086 13.9687 65.1596 13.871 65.1307C13.7733 65.0961 13.6441 65.0702 13.4832 65.0529C13.3224 65.0356 13.1443 65.0154 12.9489 64.9924C12.7594 64.9635 12.5669 64.9232 12.3716 64.8713C12.1762 64.8194 11.9981 64.7415 11.8373 64.6378C11.6764 64.534 11.5472 64.3956 11.4495 64.2226C11.3518 64.0439 11.303 63.819 11.303 63.548C11.303 63.2482 11.3921 62.9772 11.5701 62.7351C11.754 62.4929 12.024 62.2997 12.3802 62.1556C12.7421 62.0057 13.1874 61.9307 13.7159 61.9307C14.0606 61.9307 14.4053 61.9624 14.75 62.0259C15.0947 62.0893 15.3906 62.1873 15.6376 62.3199L15.1033 63.6086C14.862 63.476 14.6236 63.3866 14.3881 63.3405C14.1583 63.2886 13.9428 63.2626 13.7417 63.2626C13.4947 63.2626 13.3252 63.2857 13.2333 63.3318C13.1471 63.3779 13.1041 63.4298 13.1041 63.4875C13.1041 63.5567 13.1529 63.6086 13.2506 63.6432C13.3482 63.6778 13.4775 63.7037 13.6383 63.721C13.7992 63.7383 13.9744 63.7614 14.164 63.7902C14.3593 63.8133 14.5518 63.8536 14.7414 63.9113C14.9367 63.9632 15.1148 64.041 15.2757 64.1448C15.4365 64.2486 15.5658 64.3898 15.6634 64.5686C15.7611 64.7415 15.8099 64.9635 15.8099 65.2345C15.8099 65.517 15.7209 65.7823 15.5428 66.0302C15.3647 66.2724 15.0947 66.4684 14.7328 66.6183C14.3708 66.7624 13.917 66.8345 13.3712 66.8345ZM19.0021 66.8345C18.4276 66.8345 17.9249 66.7279 17.4941 66.5145C17.0689 66.3012 16.7386 66.01 16.5031 65.641C16.2675 65.2662 16.1497 64.8453 16.1497 64.3783C16.1497 63.8997 16.2646 63.476 16.4944 63.107C16.73 62.7379 17.0488 62.4497 17.451 62.2421C17.8589 62.0345 18.3156 61.9307 18.8212 61.9307C19.2865 61.9307 19.7145 62.023 20.1052 62.2075C20.5016 62.392 20.8175 62.6659 21.0531 63.0291C21.2944 63.3924 21.415 63.8421 21.415 64.3783C21.415 64.4475 21.4121 64.5253 21.4064 64.6118C21.4006 64.6925 21.3949 64.7675 21.3892 64.8367H17.7612V63.894H20.3551L19.6226 64.1448C19.6226 63.9603 19.5881 63.8046 19.5192 63.6778C19.456 63.5452 19.3669 63.4443 19.252 63.3751C19.1371 63.3001 18.9993 63.2626 18.8384 63.2626C18.6775 63.2626 18.5368 63.3001 18.4161 63.3751C18.3012 63.4443 18.2122 63.5452 18.149 63.6778C18.0858 63.8046 18.0542 63.9603 18.0542 64.1448V64.4388C18.0542 64.6406 18.0944 64.8136 18.1748 64.9578C18.2553 65.1019 18.3702 65.2115 18.5195 65.2864C18.6689 65.3556 18.8499 65.3902 19.0624 65.3902C19.2808 65.3902 19.4588 65.3614 19.5967 65.3037C19.7404 65.2461 19.8897 65.1596 20.0448 65.0443L21.0617 66.0734C20.8319 66.3214 20.5475 66.5116 20.2086 66.6443C19.8754 66.7711 19.4732 66.8345 19.0021 66.8345ZM26.8882 66.8345C26.239 66.8345 25.7334 66.6788 25.3715 66.3675C25.0096 66.0504 24.8286 65.5661 24.8286 64.9145V60.9534H26.7761V64.8972C26.7761 65.0414 26.8135 65.1538 26.8882 65.2345C26.9686 65.3152 27.0663 65.3556 27.1812 65.3556C27.3478 65.3556 27.4943 65.3124 27.6206 65.2259L28.086 66.5837C27.9366 66.6702 27.7557 66.7336 27.5431 66.774C27.3363 66.8143 27.118 66.8345 26.8882 66.8345ZM24.1823 63.7037V62.2767H27.7413V63.7037H24.1823ZM31.8515 61.9307C32.2134 61.9307 32.5409 62.0057 32.8338 62.1556C33.1268 62.2997 33.3566 62.5275 33.5232 62.8388C33.6956 63.1502 33.7818 63.5538 33.7818 64.0497V66.748H31.8342V64.387C31.8342 64.0929 31.7825 63.8853 31.6791 63.7643C31.5757 63.6374 31.4349 63.574 31.2569 63.574C31.1247 63.574 31.0012 63.6057 30.8863 63.6691C30.7771 63.7268 30.6881 63.8248 30.6192 63.9632C30.556 64.1015 30.5244 64.2889 30.5244 64.5253V66.748H28.5768V60.3307H30.5244V63.401L30.059 63.0032C30.2429 62.6457 30.4899 62.3776 30.8001 62.1988C31.1161 62.0201 31.4665 61.9307 31.8515 61.9307ZM37.3142 66.8345C36.7397 66.8345 36.237 66.7279 35.8062 66.5145C35.381 66.3012 35.0507 66.01 34.8151 65.641C34.5796 65.2662 34.4618 64.8453 34.4618 64.3783C34.4618 63.8997 34.5767 63.476 34.8065 63.107C35.0421 62.7379 35.3609 62.4497 35.7631 62.2421C36.171 62.0345 36.6277 61.9307 37.1332 61.9307C37.5986 61.9307 38.0266 62.023 38.4172 62.2075C38.8136 62.392 39.1296 62.6659 39.3652 63.0291C39.6064 63.3924 39.7271 63.8421 39.7271 64.3783C39.7271 64.4475 39.7242 64.5253 39.7185 64.6118C39.7127 64.6925 39.707 64.7675 39.7012 64.8367H36.0733V63.894H38.6671L37.9347 64.1448C37.9347 63.9603 37.9002 63.8046 37.8312 63.6778C37.7681 63.5452 37.679 63.4443 37.5641 63.3751C37.4492 63.3001 37.3113 63.2626 37.1505 63.2626C36.9896 63.2626 36.8489 63.3001 36.7282 63.3751C36.6133 63.4443 36.5243 63.5452 36.4611 63.6778C36.3979 63.8046 36.3663 63.9603 36.3663 64.1448V64.4388C36.3663 64.6406 36.4065 64.8136 36.4869 64.9578C36.5674 65.1019 36.6823 65.2115 36.8316 65.2864C36.981 65.3556 37.162 65.3902 37.3745 65.3902C37.5928 65.3902 37.7709 65.3614 37.9088 65.3037C38.0524 65.2461 38.2018 65.1596 38.3569 65.0443L39.3738 66.0734C39.144 66.3214 38.8596 66.5116 38.5206 66.6443C38.1874 66.7711 37.7853 66.8345 37.3142 66.8345ZM42.1858 66.8345C41.7836 66.8345 41.3872 66.7913 40.9966 66.7048C40.6059 66.6183 40.29 66.5059 40.0487 66.3675L40.5829 65.0788C40.807 65.2115 41.0655 65.3152 41.3585 65.3902C41.6573 65.4651 41.9474 65.5026 42.2289 65.5026C42.4644 65.5026 42.6224 65.4825 42.7028 65.4421C42.789 65.4017 42.8321 65.347 42.8321 65.2778C42.8321 65.2086 42.7833 65.1596 42.6856 65.1307C42.5879 65.0961 42.4587 65.0702 42.2978 65.0529C42.137 65.0356 41.9589 65.0154 41.7635 64.9924C41.574 64.9635 41.3815 64.9232 41.1862 64.8713C40.9908 64.8194 40.8127 64.7415 40.6519 64.6378C40.491 64.534 40.3618 64.3956 40.2641 64.2226C40.1664 64.0439 40.1176 63.819 40.1176 63.548C40.1176 63.2482 40.2066 62.9772 40.3847 62.7351C40.5686 62.4929 40.8386 62.2997 41.1948 62.1556C41.5567 62.0057 42.002 61.9307 42.5305 61.9307C42.8752 61.9307 43.2199 61.9624 43.5646 62.0259C43.9093 62.0893 44.2051 62.1873 44.4522 62.3199L43.9179 63.6086C43.6766 63.476 43.4382 63.3866 43.2027 63.3405C42.9729 63.2886 42.7574 63.2626 42.5563 63.2626C42.3093 63.2626 42.1398 63.2857 42.0479 63.3318C41.9617 63.3779 41.9186 63.4298 41.9186 63.4875C41.9186 63.5567 41.9675 63.6086 42.0651 63.6432C42.1628 63.6778 42.2921 63.7037 42.4529 63.721C42.6138 63.7383 42.789 63.7614 42.9786 63.7902C43.1739 63.8133 43.3664 63.8536 43.556 63.9113C43.7513 63.9632 43.9294 64.041 44.0902 64.1448C44.2511 64.2486 44.3804 64.3898 44.478 64.5686C44.5757 64.7415 44.6245 64.9635 44.6245 65.2345C44.6245 65.517 44.5355 65.7823 44.3574 66.0302C44.1793 66.2724 43.9093 66.4684 43.5473 66.6183C43.1854 66.7624 42.7316 66.8345 42.1858 66.8345ZM47.8167 66.8345C47.2422 66.8345 46.7395 66.7279 46.3087 66.5145C45.8835 66.3012 45.5532 66.01 45.3177 65.641C45.0821 65.2662 44.9643 64.8453 44.9643 64.3783C44.9643 63.8997 45.0792 63.476 45.309 63.107C45.5446 62.7379 45.8634 62.4497 46.2656 62.2421C46.6735 62.0345 47.1302 61.9307 47.6358 61.9307C48.1011 61.9307 48.5291 62.023 48.9198 62.2075C49.3162 62.392 49.6321 62.6659 49.8677 63.0291C50.109 63.3924 50.2296 63.8421 50.2296 64.3783C50.2296 64.4475 50.2267 64.5253 50.221 64.6118C50.2152 64.6925 50.2095 64.7675 50.2038 64.8367H46.5758V63.894H49.1697L48.4372 64.1448C48.4372 63.9603 48.4027 63.8046 48.3338 63.6778C48.2706 63.5452 48.1815 63.4443 48.0666 63.3751C47.9517 63.3001 47.8139 63.2626 47.653 63.2626C47.4921 63.2626 47.3514 63.3001 47.2307 63.3751C47.1158 63.4443 47.0268 63.5452 46.9636 63.6778C46.9004 63.8046 46.8688 63.9603 46.8688 64.1448V64.4388C46.8688 64.6406 46.909 64.8136 46.9894 64.9578C47.0699 65.1019 47.1848 65.2115 47.3341 65.2864C47.4835 65.3556 47.6645 65.3902 47.877 65.3902C48.0953 65.3902 48.2734 65.3614 48.4113 65.3037C48.555 65.2461 48.7043 65.1596 48.8594 65.0443L49.8763 66.0734C49.6465 66.3214 49.3621 66.5116 49.0232 66.6443C48.69 66.7711 48.2878 66.8345 47.8167 66.8345ZM55.0564 65.9697L55.0995 63.6691L56.7282 62.0172H59.0291L56.8747 64.2832L55.901 65.0702L55.0564 65.9697ZM53.4278 66.748V60.3307H55.3753V66.748H53.4278ZM56.8316 66.748L55.539 65.1048L56.7369 63.6259L59.1842 66.748H56.8316ZM61.9631 66.8345C61.3886 66.8345 60.8859 66.7279 60.4551 66.5145C60.0299 66.3012 59.6996 66.01 59.4641 65.641C59.2285 65.2662 59.1107 64.8453 59.1107 64.3783C59.1107 63.8997 59.2256 63.476 59.4554 63.107C59.691 62.7379 60.0098 62.4497 60.412 62.2421C60.8199 62.0345 61.2766 61.9307 61.7822 61.9307C62.2475 61.9307 62.6755 62.023 63.0662 62.2075C63.4626 62.392 63.7785 62.6659 64.0141 63.0291C64.2554 63.3924 64.376 63.8421 64.376 64.3783C64.376 64.4475 64.3731 64.5253 64.3674 64.6118C64.3616 64.6925 64.3559 64.7675 64.3502 64.8367H60.7222V63.894H63.3161L62.5836 64.1448C62.5836 63.9603 62.5491 63.8046 62.4802 63.6778C62.417 63.5452 62.3279 63.4443 62.213 63.3751C62.0981 63.3001 61.9603 63.2626 61.7994 63.2626C61.6385 63.2626 61.4978 63.3001 61.3771 63.3751C61.2622 63.4443 61.1732 63.5452 61.11 63.6778C61.0468 63.8046 61.0152 63.9603 61.0152 64.1448V64.4388C61.0152 64.6406 61.0554 64.8136 61.1358 64.9578C61.2163 65.1019 61.3312 65.2115 61.4805 65.2864C61.6299 65.3556 61.8109 65.3902 62.0234 65.3902C62.2418 65.3902 62.4198 65.3614 62.5577 65.3037C62.7014 65.2461 62.8507 65.1596 63.0058 65.0443L64.0227 66.0734C63.7929 66.3214 63.5085 66.5116 63.1696 66.6443C62.8364 66.7711 62.4342 66.8345 61.9631 66.8345ZM65.9406 68.5124C65.6821 68.5124 65.4178 68.472 65.1478 68.3913C64.8835 68.3163 64.6709 68.2154 64.5101 68.0886L65.1564 66.748C65.2541 66.823 65.3632 66.8835 65.4839 66.9297C65.6102 66.9758 65.7309 66.9988 65.8458 66.9988C66.0181 66.9988 66.1503 66.9614 66.2422 66.8864C66.3341 66.8172 66.4088 66.7106 66.4662 66.5664L66.6644 66.0648L66.8023 65.8745L68.3104 62.0172H70.1545L68.2156 66.8432C68.0432 67.2756 67.8422 67.6129 67.6124 67.8551C67.3883 68.0972 67.1355 68.2673 66.854 68.3653C66.5783 68.4634 66.2738 68.5124 65.9406 68.5124ZM66.3973 66.9643L64.3463 62.0172H66.3456L67.7589 65.7015L66.3973 66.9643ZM72.2121 66.8345C71.8101 66.8345 71.4137 66.7913 71.023 66.7048C70.6323 66.6183 70.3164 66.5059 70.0751 66.3675L70.6094 65.0788C70.8334 65.2115 71.0919 65.3152 71.3849 65.3902C71.6837 65.4651 71.9737 65.5026 72.2552 65.5026C72.4907 65.5026 72.6487 65.4825 72.7291 65.4421C72.8153 65.4017 72.8584 65.347 72.8584 65.2778C72.8584 65.2086 72.8095 65.1596 72.7119 65.1307C72.6142 65.0961 72.485 65.0702 72.3241 65.0529C72.1632 65.0356 71.9851 65.0154 71.79 64.9924C71.6004 64.9635 71.4079 64.9232 71.2126 64.8713C71.0173 64.8194 70.8392 64.7415 70.6783 64.6378C70.5175 64.534 70.3882 64.3956 70.2905 64.2226C70.1929 64.0439 70.144 63.819 70.144 63.548C70.144 63.2482 70.2331 62.9772 70.4112 62.7351C70.595 62.4929 70.865 62.2997 71.2212 62.1556C71.5831 62.0057 72.0282 61.9307 72.5568 61.9307C72.9015 61.9307 73.2462 61.9624 73.5909 62.0259C73.9356 62.0893 74.2314 62.1873 74.4785 62.3199L73.9442 63.6086C73.7029 63.476 73.4645 63.3866 73.2289 63.3405C72.9991 63.2886 72.7837 63.2626 72.5826 63.2626C72.3356 63.2626 72.1661 63.2857 72.0742 63.3318C71.988 63.3779 71.9449 63.4298 71.9449 63.4875C71.9449 63.5567 71.9938 63.6086 72.0914 63.6432C72.1891 63.6778 72.3184 63.7037 72.4792 63.721C72.6401 63.7383 72.8153 63.7614 73.0049 63.7902C73.2002 63.8133 73.3927 63.8536 73.5822 63.9113C73.7776 63.9632 73.9557 64.041 74.1165 64.1448C74.2774 64.2486 74.4066 64.3898 74.5043 64.5686C74.602 64.7415 74.6508 64.9635 74.6508 65.2345C74.6508 65.517 74.5618 65.7823 74.3837 66.0302C74.2056 66.2724 73.9356 66.4684 73.5736 66.6183C73.2117 66.7624 72.7578 66.8345 72.2121 66.8345ZM80.0992 66.8345C79.45 66.8345 78.9445 66.6788 78.5825 66.3675C78.2206 66.0504 78.0396 65.5661 78.0396 64.9145V60.9534H79.9872V64.8972C79.9872 65.0414 80.0245 65.1538 80.0992 65.2345C80.1796 65.3152 80.2773 65.3556 80.3922 65.3556C80.5588 65.3556 80.7053 65.3124 80.8317 65.2259L81.297 66.5837C81.1476 66.6702 80.9667 66.7336 80.7541 66.774C80.5473 66.8143 80.329 66.8345 80.0992 66.8345ZM77.3933 63.7037V62.2767H80.9523V63.7037H77.3933ZM84.1523 66.8345C83.618 66.8345 83.144 66.7307 82.7304 66.5232C82.3225 66.3098 82.0008 66.0187 81.7652 65.6497C81.5297 65.2806 81.4119 64.8569 81.4119 64.3783C81.4119 63.8997 81.5297 63.476 81.7652 63.107C82.0008 62.7379 82.3225 62.4497 82.7304 62.2421C83.144 62.0345 83.618 61.9307 84.1523 61.9307C84.6865 61.9307 85.1605 62.0345 85.5741 62.2421C85.9878 62.4497 86.3095 62.7379 86.5393 63.107C86.7748 63.476 86.8926 63.8997 86.8926 64.3783C86.8926 64.8569 86.7748 65.2806 86.5393 65.6497C86.3095 66.0187 85.9878 66.3098 85.5741 66.5232C85.1605 66.7307 84.6865 66.8345 84.1523 66.8345ZM84.1523 65.3124C84.2959 65.3124 84.4251 65.2778 84.54 65.2086C84.6549 65.1394 84.7469 65.0356 84.8158 64.8972C84.8848 64.7531 84.9192 64.5801 84.9192 64.3783C84.9192 64.1707 84.8848 64.0006 84.8158 63.868C84.7469 63.7297 84.6549 63.6259 84.54 63.5567C84.4251 63.4875 84.2959 63.4529 84.1523 63.4529C84.0086 63.4529 83.8794 63.4875 83.7645 63.5567C83.6496 63.6259 83.5577 63.7297 83.4887 63.868C83.4198 64.0006 83.3853 64.1707 83.3853 64.3783C83.3853 64.5801 83.4198 64.7531 83.4887 64.8972C83.5577 65.0356 83.6496 65.1394 83.7645 65.2086C83.8794 65.2778 84.0086 65.3124 84.1523 65.3124ZM21.4479 72.7416C21.8041 72.7416 22.1229 72.8166 22.4044 72.9665C22.6917 73.1106 22.9157 73.3384 23.0766 73.6497C23.2432 73.9611 23.3265 74.3647 23.3265 74.8605V77.5589H21.379V75.1978C21.379 74.9038 21.3301 74.6962 21.2325 74.5751C21.1348 74.4483 21.0084 74.3849 20.8533 74.3849C20.7384 74.3849 20.635 74.4137 20.5431 74.4714C20.4511 74.529 20.3765 74.6213 20.319 74.7481C20.2673 74.8692 20.2415 75.0364 20.2415 75.2497V77.5589H18.2939V75.1978C18.2939 74.9038 18.248 74.6962 18.156 74.5751C18.0641 74.4483 17.9349 74.3849 17.7682 74.3849C17.6533 74.3849 17.5499 74.4137 17.458 74.4714C17.3661 74.529 17.2914 74.6213 17.234 74.7481C17.1823 74.8692 17.1564 75.0364 17.1564 75.2497V77.5589H15.2089V72.8281H17.0616V74.1859L16.6825 73.8054C16.8605 73.4479 17.099 73.1827 17.3977 73.0097C17.6964 72.831 18.0296 72.7416 18.3973 72.7416C18.811 72.7416 19.1758 72.8512 19.4917 73.0703C19.8135 73.2836 20.0289 73.6238 20.138 74.0908L19.5434 73.9957C19.7158 73.6036 19.9657 73.298 20.2932 73.0789C20.6264 72.8541 21.0113 72.7416 21.4479 72.7416ZM26.7459 77.6454C26.2116 77.6454 25.7377 77.5416 25.324 77.3341C24.9161 77.1207 24.5944 76.8295 24.3589 76.4605C24.1233 76.0915 24.0056 75.6677 24.0056 75.1892C24.0056 74.7106 24.1233 74.2868 24.3589 73.9178C24.5944 73.5488 24.9161 73.2605 25.324 73.053C25.7377 72.8454 26.2116 72.7416 26.7459 72.7416C27.2802 72.7416 27.7541 72.8454 28.1678 73.053C28.5814 73.2605 28.9032 73.5488 29.133 73.9178C29.3685 74.2868 29.4863 74.7106 29.4863 75.1892C29.4863 75.6677 29.3685 76.0915 29.133 76.4605C28.9032 76.8295 28.5814 77.1207 28.1678 77.3341C27.7541 77.5416 27.2802 77.6454 26.7459 77.6454ZM26.7459 76.1232C26.8895 76.1232 27.0188 76.0886 27.1337 76.0195C27.2486 75.9503 27.3405 75.8465 27.4095 75.7081C27.4784 75.564 27.5129 75.391 27.5129 75.1892C27.5129 74.9816 27.4784 74.8115 27.4095 74.6789C27.3405 74.5405 27.2486 74.4368 27.1337 74.3676C27.0188 74.2984 26.8895 74.2638 26.7459 74.2638C26.6023 74.2638 26.473 74.2984 26.3581 74.3676C26.2432 74.4368 26.1513 74.5405 26.0824 74.6789C26.0134 74.8115 25.979 74.9816 25.979 75.1892C25.979 75.391 26.0134 75.564 26.0824 75.7081C26.1513 75.8465 26.2432 75.9503 26.3581 76.0195C26.473 76.0886 26.6023 76.1232 26.7459 76.1232ZM31.3053 77.5589L29.4095 72.8281H31.4087L32.8479 76.6681H31.8396L33.3735 72.8281H35.2176L33.3218 77.5589H31.3053ZM37.9917 77.6454C37.4172 77.6454 36.9145 77.5387 36.4836 77.3254C36.0585 77.1121 35.7282 76.8209 35.4926 76.4519C35.2571 76.0771 35.1393 75.6562 35.1393 75.1892C35.1393 74.7106 35.2542 74.2868 35.484 73.9178C35.7195 73.5488 36.0384 73.2605 36.4405 73.053C36.8484 72.8454 37.3052 72.7416 37.8107 72.7416C38.2761 72.7416 38.7041 72.8339 39.0947 73.0184C39.4911 73.2029 39.8071 73.4768 40.0426 73.84C40.2839 74.2032 40.4046 74.653 40.4046 75.1892C40.4046 75.2584 40.4017 75.3362 40.3959 75.4227C40.3902 75.5034 40.3845 75.5784 40.3787 75.6476H36.7508V74.7049H39.3446L38.6121 74.9557C38.6121 74.7712 38.5777 74.6155 38.5087 74.4886C38.4455 74.356 38.3565 74.2551 38.2416 74.1859C38.1267 74.111 37.9888 74.0735 37.8279 74.0735C37.6671 74.0735 37.5263 74.111 37.4057 74.1859C37.2908 74.2551 37.2017 74.356 37.1385 74.4886C37.0754 74.6155 37.0438 74.7712 37.0438 74.9557V75.2497C37.0438 75.4515 37.084 75.6245 37.1644 75.7686C37.2448 75.9128 37.3597 76.0223 37.5091 76.0973C37.6585 76.1665 37.8394 76.2011 38.052 76.2011C38.2703 76.2011 38.4484 76.1723 38.5863 76.1146C38.7299 76.0569 38.8793 75.9704 39.0344 75.8551L40.0513 76.8843C39.8214 77.1323 39.5371 77.3225 39.1981 77.4551C38.8649 77.582 38.4628 77.6454 37.9917 77.6454ZM46.4551 77.5589V76.72L46.3172 76.4951V74.9038C46.3172 74.6732 46.2454 74.4973 46.1018 74.3762C45.9639 74.2551 45.737 74.1946 45.421 74.1946C45.2084 74.1946 44.993 74.2292 44.7747 74.2984C44.5564 74.3618 44.3697 74.4512 44.2146 74.5665L43.5941 73.2778C43.8699 73.1049 44.2002 72.9723 44.5851 72.88C44.97 72.7877 45.3463 72.7416 45.714 72.7416C46.524 72.7416 47.1502 72.9232 47.5926 73.2865C48.0407 73.6497 48.2648 74.2263 48.2648 75.0162V77.5589H46.4551ZM45.1194 77.6454C44.7345 77.6454 44.4128 77.5791 44.1542 77.4465C43.8957 77.3139 43.7004 77.138 43.5682 76.9189C43.4361 76.6941 43.37 76.4461 43.37 76.1751C43.37 75.8695 43.4476 75.6101 43.6027 75.3968C43.7578 75.1834 43.9934 75.022 44.3093 74.9124C44.6311 74.8029 45.0361 74.7481 45.5244 74.7481H46.5068V75.6908H45.8346C45.6278 75.6908 45.4756 75.7254 45.3779 75.7946C45.286 75.858 45.24 75.956 45.24 76.0886C45.24 76.1982 45.2802 76.2905 45.3607 76.3654C45.4468 76.4346 45.5617 76.4692 45.7054 76.4692C45.8375 76.4692 45.9582 76.4346 46.0673 76.3654C46.1822 76.2905 46.2655 76.1751 46.3172 76.0195L46.5671 76.5989C46.4924 76.9506 46.3344 77.213 46.0932 77.3859C45.8519 77.5589 45.5273 77.6454 45.1194 77.6454ZM49.1064 77.5589V72.8281H50.9591V74.2551L50.6575 73.8486C50.8012 73.4796 51.031 73.2029 51.3469 73.0184C51.6629 72.8339 52.0421 72.7416 52.4844 72.7416V74.4714C52.3983 74.4598 52.3207 74.4512 52.2518 74.4454C52.1886 74.4396 52.1225 74.4368 52.0536 74.4368C51.7606 74.4368 51.5193 74.5146 51.3297 74.6703C51.1459 74.8202 51.0539 75.0825 51.0539 75.4573V77.5589H49.1064ZM55.4848 77.6454C54.9505 77.6454 54.4766 77.5416 54.0629 77.3341C53.655 77.1207 53.3333 76.8295 53.0978 76.4605C52.8622 76.0915 52.7445 75.6677 52.7445 75.1892C52.7445 74.7106 52.8622 74.2868 53.0978 73.9178C53.3333 73.5488 53.655 73.2605 54.0629 73.053C54.4766 72.8454 54.9505 72.7416 55.4848 72.7416C56.0191 72.7416 56.4931 72.8454 56.9067 73.053C57.3203 73.2605 57.642 73.5488 57.8718 73.9178C58.1074 74.2868 58.2252 74.7106 58.2252 75.1892C58.2252 75.6677 58.1074 76.0915 57.8718 76.4605C57.642 76.8295 57.3203 77.1207 56.9067 77.3341C56.4931 77.5416 56.0191 77.6454 55.4848 77.6454ZM55.4848 76.1232C55.6284 76.1232 55.7577 76.0886 55.8726 76.0195C55.9875 75.9503 56.0794 75.8465 56.1484 75.7081C56.2173 75.564 56.2518 75.391 56.2518 75.1892C56.2518 74.9816 56.2173 74.8115 56.1484 74.6789C56.0794 74.5405 55.9875 74.4368 55.8726 74.3676C55.7577 74.2984 55.6284 74.2638 55.4848 74.2638C55.3412 74.2638 55.2119 74.2984 55.097 74.3676C54.9821 74.4368 54.8902 74.5405 54.8213 74.6789C54.7523 74.8115 54.7179 74.9816 54.7179 75.1892C54.7179 75.391 54.7523 75.564 54.8213 75.7081C54.8902 75.8465 54.9821 75.9503 55.097 76.0195C55.2119 76.0886 55.3412 76.1232 55.4848 76.1232ZM60.7995 77.6454C60.4261 77.6454 60.0871 77.5704 59.7826 77.4205C59.4839 77.2649 59.2483 77.0256 59.076 76.7027C58.9036 76.3741 58.8175 75.9531 58.8175 75.44V72.8281H60.765V75.1027C60.765 75.4371 60.8196 75.6706 60.9287 75.8032C61.0379 75.9359 61.1873 76.0022 61.3768 76.0022C61.4917 76.0022 61.598 75.9733 61.6957 75.9157C61.7991 75.8523 61.8824 75.7514 61.9456 75.613C62.0088 75.4688 62.0404 75.2814 62.0404 75.0508V72.8281H63.9879V77.5589H62.1352V76.1924L62.5057 76.5643C62.3391 76.9333 62.1007 77.2072 61.7905 77.3859C61.486 77.5589 61.1557 77.6454 60.7995 77.6454ZM68.1264 72.7416C68.4883 72.7416 68.8158 72.8166 69.1088 72.9665C69.4018 73.1106 69.6316 73.3384 69.7982 73.6497C69.9705 73.9611 70.0567 74.3647 70.0567 74.8605V77.5589H68.1092V75.1978C68.1092 74.9038 68.0575 74.6962 67.954 74.5751C67.8506 74.4483 67.7099 74.3849 67.5318 74.3849C67.3997 74.3849 67.2761 74.4166 67.1612 74.48C67.0521 74.5377 66.963 74.6357 66.8941 74.7741C66.8309 74.9124 66.7993 75.0998 66.7993 75.3362V77.5589H64.8518V72.8281H66.7045V74.2119L66.334 73.8141C66.5178 73.4566 66.7648 73.1885 67.0751 73.0097C67.391 72.831 67.7415 72.7416 68.1264 72.7416ZM73.0551 77.6454C72.6473 77.6454 72.2681 77.5474 71.9176 77.3513C71.5727 77.1495 71.2969 76.867 71.0901 76.5038C70.8833 76.1348 70.7799 75.6966 70.7799 75.1892C70.7799 74.6818 70.8833 74.2465 71.0901 73.8832C71.2969 73.5142 71.5727 73.2317 71.9176 73.0357C72.2681 72.8396 72.6473 72.7416 73.0551 72.7416C73.4688 72.7416 73.8077 72.831 74.072 73.0097C74.3363 73.1827 74.5316 73.4508 74.658 73.8141C74.7844 74.1715 74.8476 74.6299 74.8476 75.1892C74.8476 75.7542 74.7873 76.2184 74.6666 76.5816C74.5517 76.9449 74.3621 77.213 74.0979 77.3859C73.8393 77.5589 73.4918 77.6454 73.0551 77.6454ZM73.5205 76.1232C73.6641 76.1232 73.7934 76.0886 73.9083 76.0195C74.0232 75.9503 74.1151 75.8465 74.184 75.7081C74.253 75.564 74.2874 75.391 74.2874 75.1892C74.2874 74.9816 74.253 74.8115 74.184 74.6789C74.1151 74.5405 74.0232 74.4368 73.9083 74.3676C73.7934 74.2984 73.6641 74.2638 73.5205 74.2638C73.3769 74.2638 73.2476 74.2984 73.1327 74.3676C73.0178 74.4368 72.9259 74.5405 72.8569 74.6789C72.788 74.8115 72.7535 74.9816 72.7535 75.1892C72.7535 75.391 72.788 75.564 72.8569 75.7081C72.9259 75.8465 73.0178 75.9503 73.1327 76.0195C73.2476 76.0886 73.3769 76.1232 73.5205 76.1232ZM74.3478 77.5589V76.9189L74.3391 75.1892L74.253 73.4595V71.1415H76.2005V77.5589H74.3478Z" fill="white"/>
<path d="M157.662 21.4822C157.662 15.5115 162.485 10.6714 168.434 10.6714H168.608H168.781C174.73 10.6714 179.553 15.5115 179.553 21.4822V26.9921V32.5022C179.553 38.4728 174.73 43.313 168.781 43.313H168.434C162.485 43.313 157.662 38.4729 157.662 32.5022V26.9921V21.4822Z" fill="white"/>
<path d="M168.608 10.6714H168.434C162.485 10.6714 157.662 15.5115 157.662 21.4822V26.9921M168.608 10.6714H168.781C174.73 10.6714 179.553 15.5115 179.553 21.4822V26.9921M168.608 10.6714V26.9921M157.662 26.9921H168.608M157.662 26.9921V32.5022C157.662 38.4729 162.485 43.313 168.434 43.313H168.781C174.73 43.313 179.553 38.4728 179.553 32.5022V26.9921M179.553 26.9921H168.608" stroke="black" stroke-width="2"/>
<path d="M170.89 16.6347C170.89 15.3699 169.868 14.3447 168.608 14.3447C167.348 14.3447 166.326 15.3699 166.326 16.6347V20.401C166.326 21.6657 167.348 22.691 168.608 22.691C169.868 22.691 170.89 21.6657 170.89 20.401V16.6347Z" fill="white" stroke="black" stroke-width="2"/>
<path d="M131.538 67V61.4H133.09L135.33 65.056H134.514L136.69 61.4H138.242L138.258 67H136.538L136.522 63.992H136.794L135.306 66.496H134.474L132.922 63.992H133.258V67H131.538ZM141.427 67.08C140.931 67.08 140.491 66.984 140.107 66.792C139.728 66.5947 139.43 66.3253 139.211 65.984C138.992 65.6427 138.883 65.2507 138.883 64.808C138.883 64.3653 138.992 63.9733 139.211 63.632C139.43 63.2907 139.728 63.024 140.107 62.832C140.491 62.64 140.931 62.544 141.427 62.544C141.923 62.544 142.363 62.64 142.747 62.832C143.131 63.024 143.43 63.2907 143.643 63.632C143.862 63.9733 143.971 64.3653 143.971 64.808C143.971 65.2507 143.862 65.6427 143.643 65.984C143.43 66.3253 143.131 66.5947 142.747 66.792C142.363 66.984 141.923 67.08 141.427 67.08ZM141.427 65.672C141.56 65.672 141.68 65.64 141.787 65.576C141.894 65.512 141.979 65.416 142.043 65.288C142.107 65.1547 142.139 64.9947 142.139 64.808C142.139 64.616 142.107 64.4587 142.043 64.336C141.979 64.208 141.894 64.112 141.787 64.048C141.68 63.984 141.56 63.952 141.427 63.952C141.294 63.952 141.174 63.984 141.067 64.048C140.96 64.112 140.875 64.208 140.811 64.336C140.747 64.4587 140.715 64.616 140.715 64.808C140.715 64.9947 140.747 65.1547 140.811 65.288C140.875 65.416 140.96 65.512 141.067 65.576C141.174 65.64 141.294 65.672 141.427 65.672ZM145.66 67L143.9 62.624H145.756L147.092 66.176H146.156L147.58 62.624H149.292L147.532 67H145.66ZM151.867 67.08C151.333 67.08 150.867 66.9813 150.467 66.784C150.072 66.5867 149.765 66.3173 149.547 65.976C149.328 65.6293 149.219 65.24 149.219 64.808C149.219 64.3653 149.325 63.9733 149.539 63.632C149.757 63.2907 150.053 63.024 150.427 62.832C150.805 62.64 151.229 62.544 151.699 62.544C152.131 62.544 152.528 62.6293 152.891 62.8C153.259 62.9707 153.552 63.224 153.771 63.56C153.995 63.896 154.107 64.312 154.107 64.808C154.107 64.872 154.104 64.944 154.099 65.024C154.093 65.0987 154.088 65.168 154.083 65.232H150.715V64.36H153.123L152.443 64.592C152.443 64.4213 152.411 64.2773 152.347 64.16C152.288 64.0373 152.205 63.944 152.099 63.88C151.992 63.8107 151.864 63.776 151.715 63.776C151.565 63.776 151.435 63.8107 151.323 63.88C151.216 63.944 151.133 64.0373 151.075 64.16C151.016 64.2773 150.987 64.4213 150.987 64.592V64.864C150.987 65.0507 151.024 65.2107 151.099 65.344C151.173 65.4773 151.28 65.5787 151.419 65.648C151.557 65.712 151.725 65.744 151.923 65.744C152.125 65.744 152.291 65.7173 152.419 65.664C152.552 65.6107 152.691 65.5307 152.835 65.424L153.779 66.376C153.565 66.6053 153.301 66.7813 152.987 66.904C152.677 67.0213 152.304 67.08 151.867 67.08ZM158.036 68.632C157.796 68.632 157.55 68.5947 157.3 68.52C157.054 68.4507 156.857 68.3573 156.708 68.24L157.308 67C157.398 67.0693 157.5 67.1253 157.612 67.168C157.729 67.2107 157.841 67.232 157.948 67.232C158.108 67.232 158.23 67.1973 158.316 67.128C158.401 67.064 158.47 66.9653 158.524 66.832L158.708 66.368L158.836 66.192L160.236 62.624H161.948L160.148 67.088C159.988 67.488 159.801 67.8 159.588 68.024C159.38 68.248 159.145 68.4053 158.884 68.496C158.628 68.5867 158.345 68.632 158.036 68.632ZM158.46 67.2L156.556 62.624H158.412L159.724 66.032L158.46 67.2ZM164.419 67.08C163.923 67.08 163.483 66.984 163.099 66.792C162.72 66.5947 162.422 66.3253 162.203 65.984C161.984 65.6427 161.875 65.2507 161.875 64.808C161.875 64.3653 161.984 63.9733 162.203 63.632C162.422 63.2907 162.72 63.024 163.099 62.832C163.483 62.64 163.923 62.544 164.419 62.544C164.915 62.544 165.355 62.64 165.739 62.832C166.123 63.024 166.422 63.2907 166.635 63.632C166.854 63.9733 166.963 64.3653 166.963 64.808C166.963 65.2507 166.854 65.6427 166.635 65.984C166.422 66.3253 166.123 66.5947 165.739 66.792C165.355 66.984 164.915 67.08 164.419 67.08ZM164.419 65.672C164.552 65.672 164.672 65.64 164.779 65.576C164.886 65.512 164.971 65.416 165.035 65.288C165.099 65.1547 165.131 64.9947 165.131 64.808C165.131 64.616 165.099 64.4587 165.035 64.336C164.971 64.208 164.886 64.112 164.779 64.048C164.672 63.984 164.552 63.952 164.419 63.952C164.286 63.952 164.166 63.984 164.059 64.048C163.952 64.112 163.867 64.208 163.803 64.336C163.739 64.4587 163.707 64.616 163.707 64.808C163.707 64.9947 163.739 65.1547 163.803 65.288C163.867 65.416 163.952 65.512 164.059 65.576C164.166 65.64 164.286 65.672 164.419 65.672ZM169.353 67.08C169.006 67.08 168.692 67.0107 168.409 66.872C168.132 66.728 167.913 66.5067 167.753 66.208C167.593 65.904 167.513 65.5147 167.513 65.04V62.624H169.321V64.728C169.321 65.0373 169.372 65.2533 169.473 65.376C169.574 65.4987 169.713 65.56 169.889 65.56C169.996 65.56 170.094 65.5333 170.185 65.48C170.281 65.4213 170.358 65.328 170.417 65.2C170.476 65.0667 170.505 64.8933 170.505 64.68V62.624H172.313V67H170.593V65.736L170.937 66.08C170.782 66.4213 170.561 66.6747 170.273 66.84C169.99 67 169.684 67.08 169.353 67.08ZM173.115 67V62.624H174.835V63.944L174.555 63.568C174.688 63.2267 174.902 62.9707 175.195 62.8C175.488 62.6293 175.84 62.544 176.251 62.544V64.144C176.171 64.1333 176.099 64.1253 176.035 64.12C175.976 64.1147 175.915 64.112 175.851 64.112C175.579 64.112 175.355 64.184 175.179 64.328C175.008 64.4667 174.923 64.7093 174.923 65.056V67H173.115ZM184.954 62.544C185.284 62.544 185.58 62.6133 185.842 62.752C186.108 62.8853 186.316 63.096 186.466 63.384C186.62 63.672 186.698 64.0453 186.698 64.504V67H184.89V64.816C184.89 64.544 184.844 64.352 184.754 64.24C184.663 64.1227 184.546 64.064 184.402 64.064C184.295 64.064 184.199 64.0907 184.114 64.144C184.028 64.1973 183.959 64.2827 183.906 64.4C183.858 64.512 183.834 64.6667 183.834 64.864V67H182.026V64.816C182.026 64.544 181.983 64.352 181.898 64.24C181.812 64.1227 181.692 64.064 181.538 64.064C181.431 64.064 181.335 64.0907 181.25 64.144C181.164 64.1973 181.095 64.2827 181.042 64.4C180.994 64.512 180.97 64.6667 180.97 64.864V67H179.162V62.624H180.882V63.88L180.53 63.528C180.695 63.1973 180.916 62.952 181.194 62.792C181.471 62.6267 181.78 62.544 182.122 62.544C182.506 62.544 182.844 62.6453 183.138 62.848C183.436 63.0453 183.636 63.36 183.738 63.792L183.186 63.704C183.346 63.3413 183.578 63.0587 183.882 62.856C184.191 62.648 184.548 62.544 184.954 62.544ZM189.872 67.08C189.376 67.08 188.936 66.984 188.552 66.792C188.173 66.5947 187.875 66.3253 187.656 65.984C187.437 65.6427 187.328 65.2507 187.328 64.808C187.328 64.3653 187.437 63.9733 187.656 63.632C187.875 63.2907 188.173 63.024 188.552 62.832C188.936 62.64 189.376 62.544 189.872 62.544C190.368 62.544 190.808 62.64 191.192 62.832C191.576 63.024 191.875 63.2907 192.088 63.632C192.307 63.9733 192.416 64.3653 192.416 64.808C192.416 65.2507 192.307 65.6427 192.088 65.984C191.875 66.3253 191.576 66.5947 191.192 66.792C190.808 66.984 190.368 67.08 189.872 67.08ZM189.872 65.672C190.005 65.672 190.125 65.64 190.232 65.576C190.339 65.512 190.424 65.416 190.488 65.288C190.552 65.1547 190.584 64.9947 190.584 64.808C190.584 64.616 190.552 64.4587 190.488 64.336C190.424 64.208 190.339 64.112 190.232 64.048C190.125 63.984 190.005 63.952 189.872 63.952C189.739 63.952 189.619 63.984 189.512 64.048C189.405 64.112 189.32 64.208 189.256 64.336C189.192 64.4587 189.16 64.616 189.16 64.808C189.16 64.9947 189.192 65.1547 189.256 65.288C189.32 65.416 189.405 65.512 189.512 65.576C189.619 65.64 189.739 65.672 189.872 65.672ZM194.806 67.08C194.459 67.08 194.145 67.0107 193.862 66.872C193.585 66.728 193.366 66.5067 193.206 66.208C193.046 65.904 192.966 65.5147 192.966 65.04V62.624H194.774V64.728C194.774 65.0373 194.825 65.2533 194.926 65.376C195.027 65.4987 195.166 65.56 195.342 65.56C195.449 65.56 195.547 65.5333 195.638 65.48C195.734 65.4213 195.811 65.328 195.87 65.2C195.929 65.0667 195.958 64.8933 195.958 64.68V62.624H197.766V67H196.046V65.736L196.39 66.08C196.235 66.4213 196.014 66.6747 195.726 66.84C195.443 67 195.137 67.08 194.806 67.08ZM200.28 67.08C199.907 67.08 199.539 67.04 199.176 66.96C198.813 66.88 198.52 66.776 198.296 66.648L198.792 65.456C199 65.5787 199.24 65.6747 199.512 65.744C199.789 65.8133 200.059 65.848 200.32 65.848C200.539 65.848 200.685 65.8293 200.76 65.792C200.84 65.7547 200.88 65.704 200.88 65.64C200.88 65.576 200.835 65.5307 200.744 65.504C200.653 65.472 200.533 65.448 200.384 65.432C200.235 65.416 200.069 65.3973 199.888 65.376C199.712 65.3493 199.533 65.312 199.352 65.264C199.171 65.216 199.005 65.144 198.856 65.048C198.707 64.952 198.587 64.824 198.496 64.664C198.405 64.4987 198.36 64.2907 198.36 64.04C198.36 63.7627 198.443 63.512 198.608 63.288C198.779 63.064 199.029 62.8853 199.36 62.752C199.696 62.6133 200.109 62.544 200.6 62.544C200.92 62.544 201.24 62.5733 201.56 62.632C201.88 62.6907 202.155 62.7813 202.384 62.904L201.888 64.096C201.664 63.9733 201.443 63.8907 201.224 63.848C201.011 63.8 200.811 63.776 200.624 63.776C200.395 63.776 200.237 63.7973 200.152 63.84C200.072 63.8827 200.032 63.9307 200.032 63.984C200.032 64.048 200.077 64.096 200.168 64.128C200.259 64.16 200.379 64.184 200.528 64.2C200.677 64.216 200.84 64.2373 201.016 64.264C201.197 64.2853 201.376 64.3227 201.552 64.376C201.733 64.424 201.899 64.496 202.048 64.592C202.197 64.688 202.317 64.8187 202.408 64.984C202.499 65.144 202.544 65.3493 202.544 65.6C202.544 65.8613 202.461 66.1067 202.296 66.336C202.131 66.56 201.88 66.7413 201.544 66.88C201.208 67.0133 200.787 67.08 200.28 67.08ZM205.507 67.08C204.974 67.08 204.507 66.9813 204.107 66.784C203.713 66.5867 203.406 66.3173 203.187 65.976C202.969 65.6293 202.859 65.24 202.859 64.808C202.859 64.3653 202.966 63.9733 203.179 63.632C203.398 63.2907 203.694 63.024 204.067 62.832C204.446 62.64 204.87 62.544 205.339 62.544C205.771 62.544 206.169 62.6293 206.531 62.8C206.899 62.9707 207.193 63.224 207.411 63.56C207.635 63.896 207.747 64.312 207.747 64.808C207.747 64.872 207.745 64.944 207.739 65.024C207.734 65.0987 207.729 65.168 207.723 65.232H204.355V64.36H206.763L206.083 64.592C206.083 64.4213 206.051 64.2773 205.987 64.16C205.929 64.0373 205.846 63.944 205.739 63.88C205.633 63.8107 205.505 63.776 205.355 63.776C205.206 63.776 205.075 63.8107 204.963 63.88C204.857 63.944 204.774 64.0373 204.715 64.16C204.657 64.2773 204.627 64.4213 204.627 64.592V64.864C204.627 65.0507 204.665 65.2107 204.739 65.344C204.814 65.4773 204.921 65.5787 205.059 65.648C205.198 65.712 205.366 65.744 205.563 65.744C205.766 65.744 205.931 65.7173 206.059 65.664C206.193 65.6107 206.331 65.5307 206.475 65.424L207.419 66.376C207.206 66.6053 206.942 66.7813 206.627 66.904C206.318 67.0213 205.945 67.08 205.507 67.08ZM132.098 77.08C131.495 77.08 131.026 76.936 130.69 76.648C130.354 76.3547 130.186 75.9067 130.186 75.304V71.64H131.994V75.288C131.994 75.4213 132.029 75.5253 132.098 75.6C132.173 75.6747 132.263 75.712 132.37 75.712C132.525 75.712 132.661 75.672 132.778 75.592L133.21 76.848C133.071 76.928 132.903 76.9867 132.706 77.024C132.514 77.0613 132.311 77.08 132.098 77.08ZM129.586 74.184V72.864H132.89V74.184H129.586ZM135.86 77.08C135.364 77.08 134.924 76.984 134.54 76.792C134.162 76.5947 133.863 76.3253 133.644 75.984C133.426 75.6427 133.316 75.2507 133.316 74.808C133.316 74.3653 133.426 73.9733 133.644 73.632C133.863 73.2907 134.162 73.024 134.54 72.832C134.924 72.64 135.364 72.544 135.86 72.544C136.356 72.544 136.796 72.64 137.18 72.832C137.564 73.024 137.863 73.2907 138.076 73.632C138.295 73.9733 138.404 74.3653 138.404 74.808C138.404 75.2507 138.295 75.6427 138.076 75.984C137.863 76.3253 137.564 76.5947 137.18 76.792C136.796 76.984 136.356 77.08 135.86 77.08ZM135.86 75.672C135.994 75.672 136.114 75.64 136.22 75.576C136.327 75.512 136.412 75.416 136.476 75.288C136.54 75.1547 136.572 74.9947 136.572 74.808C136.572 74.616 136.54 74.4587 136.476 74.336C136.412 74.208 136.327 74.112 136.22 74.048C136.114 73.984 135.994 73.952 135.86 73.952C135.727 73.952 135.607 73.984 135.5 74.048C135.394 74.112 135.308 74.208 135.244 74.336C135.18 74.4587 135.148 74.616 135.148 74.808C135.148 74.9947 135.18 75.1547 135.244 75.288C135.308 75.416 135.394 75.512 135.5 75.576C135.607 75.64 135.727 75.672 135.86 75.672ZM143.481 77.08C142.878 77.08 142.409 76.936 142.073 76.648C141.737 76.3547 141.569 75.9067 141.569 75.304V71.64H143.377V75.288C143.377 75.4213 143.411 75.5253 143.481 75.6C143.555 75.6747 143.646 75.712 143.753 75.712C143.907 75.712 144.043 75.672 144.161 75.592L144.593 76.848C144.454 76.928 144.286 76.9867 144.089 77.024C143.897 77.0613 143.694 77.08 143.481 77.08ZM140.969 74.184V72.864H144.273V74.184H140.969ZM146.872 77.08C146.526 77.08 146.211 77.0107 145.928 76.872C145.651 76.728 145.432 76.5067 145.272 76.208C145.112 75.904 145.032 75.5147 145.032 75.04V72.624H146.84V74.728C146.84 75.0373 146.891 75.2533 146.992 75.376C147.094 75.4987 147.232 75.56 147.408 75.56C147.515 75.56 147.614 75.5333 147.704 75.48C147.8 75.4213 147.878 75.328 147.936 75.2C147.995 75.0667 148.024 74.8933 148.024 74.68V72.624H149.832V77H148.112V75.736L148.456 76.08C148.302 76.4213 148.08 76.6747 147.792 76.84C147.51 77 147.203 77.08 146.872 77.08ZM150.634 77V72.624H152.354V73.944L152.074 73.568C152.208 73.2267 152.421 72.9707 152.714 72.8C153.008 72.6293 153.36 72.544 153.77 72.544V74.144C153.69 74.1333 153.618 74.1253 153.554 74.12C153.496 74.1147 153.434 74.112 153.37 74.112C153.098 74.112 152.874 74.184 152.698 74.328C152.528 74.4667 152.442 74.7093 152.442 75.056V77H150.634ZM157.323 72.544C157.659 72.544 157.963 72.6133 158.235 72.752C158.507 72.8853 158.72 73.096 158.875 73.384C159.035 73.672 159.115 74.0453 159.115 74.504V77H157.307V74.816C157.307 74.544 157.259 74.352 157.163 74.24C157.067 74.1227 156.936 74.064 156.771 74.064C156.648 74.064 156.533 74.0933 156.427 74.152C156.325 74.2053 156.243 74.296 156.179 74.424C156.12 74.552 156.091 74.7253 156.091 74.944V77H154.283V72.624H156.003V73.904L155.659 73.536C155.829 73.2053 156.059 72.9573 156.347 72.792C156.64 72.6267 156.965 72.544 157.323 72.544ZM163.258 78.632C163.018 78.632 162.773 78.5947 162.522 78.52C162.277 78.4507 162.08 78.3573 161.93 78.24L162.53 77C162.621 77.0693 162.722 77.1253 162.834 77.168C162.952 77.2107 163.064 77.232 163.17 77.232C163.33 77.232 163.453 77.1973 163.538 77.128C163.624 77.064 163.693 76.9653 163.746 76.832L163.93 76.368L164.058 76.192L165.458 72.624H167.17L165.37 77.088C165.21 77.488 165.024 77.8 164.81 78.024C164.602 78.248 164.368 78.4053 164.106 78.496C163.85 78.5867 163.568 78.632 163.258 78.632ZM163.682 77.2L161.778 72.624H163.634L164.946 76.032L163.682 77.2ZM169.642 77.08C169.146 77.08 168.706 76.984 168.322 76.792C167.943 76.5947 167.644 76.3253 167.426 75.984C167.207 75.6427 167.098 75.2507 167.098 74.808C167.098 74.3653 167.207 73.9733 167.426 73.632C167.644 73.2907 167.943 73.024 168.322 72.832C168.706 72.64 169.146 72.544 169.642 72.544C170.138 72.544 170.578 72.64 170.962 72.832C171.346 73.024 171.644 73.2907 171.858 73.632C172.076 73.9733 172.186 74.3653 172.186 74.808C172.186 75.2507 172.076 75.6427 171.858 75.984C171.644 76.3253 171.346 76.5947 170.962 76.792C170.578 76.984 170.138 77.08 169.642 77.08ZM169.642 75.672C169.775 75.672 169.895 75.64 170.002 75.576C170.108 75.512 170.194 75.416 170.258 75.288C170.322 75.1547 170.354 74.9947 170.354 74.808C170.354 74.616 170.322 74.4587 170.258 74.336C170.194 74.208 170.108 74.112 170.002 74.048C169.895 73.984 169.775 73.952 169.642 73.952C169.508 73.952 169.388 73.984 169.282 74.048C169.175 74.112 169.09 74.208 169.026 74.336C168.962 74.4587 168.93 74.616 168.93 74.808C168.93 74.9947 168.962 75.1547 169.026 75.288C169.09 75.416 169.175 75.512 169.282 75.576C169.388 75.64 169.508 75.672 169.642 75.672ZM174.576 77.08C174.229 77.08 173.914 77.0107 173.632 76.872C173.354 76.728 173.136 76.5067 172.976 76.208C172.816 75.904 172.736 75.5147 172.736 75.04V72.624H174.544V74.728C174.544 75.0373 174.594 75.2533 174.696 75.376C174.797 75.4987 174.936 75.56 175.112 75.56C175.218 75.56 175.317 75.5333 175.408 75.48C175.504 75.4213 175.581 75.328 175.64 75.2C175.698 75.0667 175.728 74.8933 175.728 74.68V72.624H177.536V77H175.816V75.736L176.16 76.08C176.005 76.4213 175.784 76.6747 175.496 76.84C175.213 77 174.906 77.08 174.576 77.08ZM178.338 77V72.624H180.058V73.944L179.778 73.568C179.911 73.2267 180.124 72.9707 180.418 72.8C180.711 72.6293 181.063 72.544 181.474 72.544V74.144C181.394 74.1333 181.322 74.1253 181.258 74.12C181.199 74.1147 181.138 74.112 181.074 74.112C180.802 74.112 180.578 74.184 180.402 74.328C180.231 74.4667 180.146 74.7093 180.146 75.056V77H178.338ZM186.496 77.08C185.894 77.08 185.424 76.936 185.088 76.648C184.752 76.3547 184.584 75.9067 184.584 75.304V71.64H186.392V75.288C186.392 75.4213 186.427 75.5253 186.496 75.6C186.571 75.6747 186.662 75.712 186.768 75.712C186.923 75.712 187.059 75.672 187.176 75.592L187.608 76.848C187.47 76.928 187.302 76.9867 187.104 77.024C186.912 77.0613 186.71 77.08 186.496 77.08ZM183.984 74.184V72.864H187.288V74.184H183.984ZM189.888 77.08C189.541 77.08 189.227 77.0107 188.944 76.872C188.667 76.728 188.448 76.5067 188.288 76.208C188.128 75.904 188.048 75.5147 188.048 75.04V72.624H189.856V74.728C189.856 75.0373 189.907 75.2533 190.008 75.376C190.109 75.4987 190.248 75.56 190.424 75.56C190.531 75.56 190.629 75.5333 190.72 75.48C190.816 75.4213 190.893 75.328 190.952 75.2C191.011 75.0667 191.04 74.8933 191.04 74.68V72.624H192.848V77H191.128V75.736L191.472 76.08C191.317 76.4213 191.096 76.6747 190.808 76.84C190.525 77 190.219 77.08 189.888 77.08ZM193.65 77V72.624H195.37V73.944L195.09 73.568C195.223 73.2267 195.437 72.9707 195.73 72.8C196.023 72.6293 196.375 72.544 196.786 72.544V74.144C196.706 74.1333 196.634 74.1253 196.57 74.12C196.511 74.1147 196.45 74.112 196.386 74.112C196.114 74.112 195.89 74.184 195.714 74.328C195.543 74.4667 195.458 74.7093 195.458 75.056V77H193.65ZM197.298 77V72.624H199.018V73.944L198.738 73.568C198.872 73.2267 199.085 72.9707 199.378 72.8C199.672 72.6293 200.024 72.544 200.434 72.544V74.144C200.354 74.1333 200.282 74.1253 200.218 74.12C200.16 74.1147 200.098 74.112 200.034 74.112C199.762 74.112 199.538 74.184 199.362 74.328C199.192 74.4667 199.106 74.7093 199.106 75.056V77H197.298ZM203.324 77.08C202.79 77.08 202.324 76.9813 201.924 76.784C201.529 76.5867 201.222 76.3173 201.004 75.976C200.785 75.6293 200.676 75.24 200.676 74.808C200.676 74.3653 200.782 73.9733 200.996 73.632C201.214 73.2907 201.51 73.024 201.884 72.832C202.262 72.64 202.686 72.544 203.156 72.544C203.588 72.544 203.985 72.6293 204.348 72.8C204.716 72.9707 205.009 73.224 205.228 73.56C205.452 73.896 205.564 74.312 205.564 74.808C205.564 74.872 205.561 74.944 205.556 75.024C205.55 75.0987 205.545 75.168 205.54 75.232H202.172V74.36H204.58L203.9 74.592C203.9 74.4213 203.868 74.2773 203.804 74.16C203.745 74.0373 203.662 73.944 203.556 73.88C203.449 73.8107 203.321 73.776 203.172 73.776C203.022 73.776 202.892 73.8107 202.78 73.88C202.673 73.944 202.59 74.0373 202.532 74.16C202.473 74.2773 202.444 74.4213 202.444 74.592V74.864C202.444 75.0507 202.481 75.2107 202.556 75.344C202.63 75.4773 202.737 75.5787 202.876 75.648C203.014 75.712 203.182 75.744 203.38 75.744C203.582 75.744 203.748 75.7173 203.876 75.664C204.009 75.6107 204.148 75.5307 204.292 75.424L205.236 76.376C205.022 76.6053 204.758 76.7813 204.444 76.904C204.134 77.0213 203.761 77.08 203.324 77.08ZM208.246 77.08C207.644 77.08 207.174 76.936 206.838 76.648C206.502 76.3547 206.334 75.9067 206.334 75.304V71.64H208.142V75.288C208.142 75.4213 208.177 75.5253 208.246 75.6C208.321 75.6747 208.412 75.712 208.518 75.712C208.673 75.712 208.809 75.672 208.926 75.592L209.358 76.848C209.22 76.928 209.052 76.9867 208.854 77.024C208.662 77.0613 208.46 77.08 208.246 77.08ZM205.734 74.184V72.864H209.038V74.184H205.734Z" fill="white"/>
</g>
<defs>
<clipPath id="clip0_225_8">
<rect width="214" height="80" fill="white"/>
</clipPath>
</defs>
</svg>
