
<svg width="462" height="114" viewBox="0 0 462 114" fill="none" xmlns="http://www.w3.org/2000/svg">
<rect x="60.4036" width="34.0639" height="34.0639" rx="10" fill="white"/>
<rect x="60.4036" y="37.4035" width="34.0639" height="34.0639" rx="10" fill="white"/>
<rect x="97.807" y="37.4035" width="34.0639" height="34.0639" rx="10" fill="white"/>
<rect x="23" y="37.4035" width="34.0639" height="34.0639" rx="10" fill="white"/>
<path d="M71.5311 23L67.9471 11.8H71.8351L74.7311 21.256H72.7791L75.8511 11.8H79.3231L82.1871 21.256H80.3151L83.3391 11.8H86.9231L83.3391 23H79.2911L76.9551 15.256H78.0431L75.5791 23H71.5311Z" fill="black"/>
<path d="M77.2657 60.6595C76.327 60.6595 75.4204 60.5528 74.5457 60.3395C73.671 60.1262 72.951 59.8488 72.3857 59.5075L73.6017 56.7555C74.135 57.0648 74.727 57.3155 75.3777 57.5075C76.039 57.6888 76.679 57.7795 77.2977 57.7795C77.6604 57.7795 77.943 57.7582 78.1457 57.7155C78.359 57.6622 78.5137 57.5928 78.6097 57.5075C78.7057 57.4115 78.7537 57.2995 78.7537 57.1715C78.7537 56.9688 78.6417 56.8088 78.4177 56.6915C78.1937 56.5742 77.895 56.4782 77.5217 56.4035C77.159 56.3182 76.759 56.2328 76.3217 56.1475C75.8844 56.0515 75.4417 55.9288 74.9937 55.7795C74.5564 55.6302 74.151 55.4328 73.7777 55.1875C73.415 54.9422 73.1217 54.6222 72.8977 54.2275C72.6737 53.8222 72.5617 53.3208 72.5617 52.7235C72.5617 52.0302 72.7537 51.4008 73.1377 50.8355C73.5324 50.2595 74.1137 49.8008 74.8817 49.4595C75.6604 49.1182 76.6257 48.9475 77.7777 48.9475C78.535 48.9475 79.2817 49.0275 80.0177 49.1875C80.7537 49.3475 81.415 49.5928 82.0017 49.9235L80.8657 52.6595C80.311 52.3822 79.7724 52.1742 79.2497 52.0355C78.7377 51.8968 78.2364 51.8275 77.7457 51.8275C77.383 51.8275 77.095 51.8595 76.8817 51.9235C76.6684 51.9875 76.5137 52.0728 76.4177 52.1795C76.3324 52.2862 76.2897 52.4035 76.2897 52.5315C76.2897 52.7235 76.4017 52.8782 76.6257 52.9955C76.8497 53.1022 77.143 53.1928 77.5057 53.2675C77.879 53.3422 78.2844 53.4222 78.7217 53.5075C79.1697 53.5928 79.6124 53.7102 80.0497 53.8595C80.487 54.0088 80.887 54.2062 81.2497 54.4515C81.623 54.6968 81.9217 55.0168 82.1457 55.4115C82.3697 55.8062 82.4817 56.2968 82.4817 56.8835C82.4817 57.5662 82.2844 58.1955 81.8897 58.7715C81.5057 59.3368 80.9297 59.7955 80.1617 60.1475C79.3937 60.4888 78.4284 60.6595 77.2657 60.6595Z" fill="black"/>
<path d="M109.142 60.4035V49.2035H114.662C115.91 49.2035 117.008 49.4328 117.958 49.8915C118.907 50.3395 119.648 50.9795 120.182 51.8115C120.715 52.6435 120.982 53.6355 120.982 54.7875C120.982 55.9502 120.715 56.9528 120.182 57.7955C119.648 58.6275 118.907 59.2728 117.958 59.7315C117.008 60.1795 115.91 60.4035 114.662 60.4035H109.142ZM112.918 57.4595H114.502C115.035 57.4595 115.499 57.3582 115.894 57.1555C116.299 56.9528 116.614 56.6542 116.838 56.2595C117.062 55.8542 117.174 55.3635 117.174 54.7875C117.174 54.2222 117.062 53.7422 116.838 53.3475C116.614 52.9528 116.299 52.6542 115.894 52.4515C115.499 52.2488 115.035 52.1475 114.502 52.1475H112.918V57.4595Z" fill="black"/>
<path d="M33.2826 60.4035L38.1786 49.2035H41.8906L46.7866 60.4035H42.8826L39.2666 50.9955H40.7386L37.1226 60.4035H33.2826ZM36.1946 58.4515L37.1546 55.7315H42.3066L43.2666 58.4515H36.1946Z" fill="black"/>
<path d="M27.1733 98.144C25.9813 98.144 25.0493 97.812 24.3773 97.148C23.7053 96.484 23.3693 95.536 23.3693 94.304V89.6H25.3133V94.232C25.3133 95.032 25.4773 95.608 25.8053 95.96C26.1333 96.312 26.5933 96.488 27.1853 96.488C27.7773 96.488 28.2373 96.312 28.5653 95.96C28.8933 95.608 29.0573 95.032 29.0573 94.232V89.6H30.9773V94.304C30.9773 95.536 30.6413 96.484 29.9693 97.148C29.2973 97.812 28.3653 98.144 27.1733 98.144ZM34.9383 98.096C34.3863 98.096 33.8543 98.032 33.3423 97.904C32.8383 97.768 32.4383 97.6 32.1423 97.4L32.7663 96.056C33.0623 96.24 33.4103 96.392 33.8103 96.512C34.2183 96.624 34.6183 96.68 35.0103 96.68C35.4423 96.68 35.7463 96.628 35.9223 96.524C36.1063 96.42 36.1983 96.276 36.1983 96.092C36.1983 95.94 36.1263 95.828 35.9823 95.756C35.8463 95.676 35.6623 95.616 35.4303 95.576C35.1983 95.536 34.9423 95.496 34.6623 95.456C34.3903 95.416 34.1143 95.364 33.8343 95.3C33.5543 95.228 33.2983 95.124 33.0663 94.988C32.8343 94.852 32.6463 94.668 32.5023 94.436C32.3663 94.204 32.2983 93.904 32.2983 93.536C32.2983 93.128 32.4143 92.768 32.6463 92.456C32.8863 92.144 33.2303 91.9 33.6783 91.724C34.1263 91.54 34.6623 91.448 35.2863 91.448C35.7263 91.448 36.1743 91.496 36.6303 91.592C37.0863 91.688 37.4663 91.828 37.7703 92.012L37.1463 93.344C36.8343 93.16 36.5183 93.036 36.1983 92.972C35.8863 92.9 35.5823 92.864 35.2863 92.864C34.8703 92.864 34.5663 92.92 34.3743 93.032C34.1823 93.144 34.0863 93.288 34.0863 93.464C34.0863 93.624 34.1543 93.744 34.2903 93.824C34.4343 93.904 34.6223 93.968 34.8543 94.016C35.0863 94.064 35.3383 94.108 35.6103 94.148C35.8903 94.18 36.1703 94.232 36.4503 94.304C36.7303 94.376 36.9823 94.48 37.2063 94.616C37.4383 94.744 37.6263 94.924 37.7703 95.156C37.9143 95.38 37.9863 95.676 37.9863 96.044C37.9863 96.444 37.8663 96.8 37.6263 97.112C37.3863 97.416 37.0383 97.656 36.5823 97.832C36.1343 98.008 35.5863 98.096 34.9383 98.096ZM42.3453 98.096C41.6093 98.096 40.9613 97.952 40.4013 97.664C39.8493 97.376 39.4213 96.984 39.1173 96.488C38.8133 95.984 38.6613 95.412 38.6613 94.772C38.6613 94.124 38.8093 93.552 39.1053 93.056C39.4093 92.552 39.8213 92.16 40.3413 91.88C40.8613 91.592 41.4493 91.448 42.1053 91.448C42.7373 91.448 43.3053 91.584 43.8093 91.856C44.3213 92.12 44.7253 92.504 45.0213 93.008C45.3173 93.504 45.4653 94.1 45.4653 94.796C45.4653 94.868 45.4613 94.952 45.4533 95.048C45.4453 95.136 45.4373 95.22 45.4293 95.3H40.1853V94.208H44.4453L43.7253 94.532C43.7253 94.196 43.6573 93.904 43.5213 93.656C43.3853 93.408 43.1973 93.216 42.9573 93.08C42.7173 92.936 42.4373 92.864 42.1173 92.864C41.7973 92.864 41.5133 92.936 41.2653 93.08C41.0253 93.216 40.8373 93.412 40.7013 93.668C40.5653 93.916 40.4973 94.212 40.4973 94.556V94.844C40.4973 95.196 40.5733 95.508 40.7253 95.78C40.8853 96.044 41.1053 96.248 41.3853 96.392C41.6733 96.528 42.0093 96.596 42.3933 96.596C42.7373 96.596 43.0373 96.544 43.2933 96.44C43.5573 96.336 43.7973 96.18 44.0133 95.972L45.0093 97.052C44.7133 97.388 44.3413 97.648 43.8933 97.832C43.4453 98.008 42.9293 98.096 42.3453 98.096ZM52.7501 98.096C51.9901 98.096 51.3981 97.904 50.9741 97.52C50.5501 97.128 50.3381 96.548 50.3381 95.78V90.116H52.2101V95.756C52.2101 96.028 52.2821 96.24 52.4261 96.392C52.5701 96.536 52.7661 96.608 53.0141 96.608C53.3101 96.608 53.5621 96.528 53.7701 96.368L54.2741 97.688C54.0821 97.824 53.8501 97.928 53.5781 98C53.3141 98.064 53.0381 98.096 52.7501 98.096ZM49.3421 93.128V91.688H53.8181V93.128H49.3421ZM59.2489 91.448C59.7609 91.448 60.2169 91.552 60.6169 91.76C61.0249 91.96 61.3449 92.272 61.5769 92.696C61.8089 93.112 61.9249 93.648 61.9249 94.304V98H60.0529V94.592C60.0529 94.072 59.9369 93.688 59.7049 93.44C59.4809 93.192 59.1609 93.068 58.7449 93.068C58.4489 93.068 58.1809 93.132 57.9409 93.26C57.7089 93.38 57.5249 93.568 57.3889 93.824C57.2609 94.08 57.1969 94.408 57.1969 94.808V98H55.3249V89.096H57.1969V93.332L56.7769 92.792C57.0089 92.36 57.3409 92.028 57.7729 91.796C58.2049 91.564 58.6969 91.448 59.2489 91.448ZM66.8727 98.096C66.1367 98.096 65.4887 97.952 64.9287 97.664C64.3767 97.376 63.9487 96.984 63.6447 96.488C63.3407 95.984 63.1887 95.412 63.1887 94.772C63.1887 94.124 63.3367 93.552 63.6327 93.056C63.9367 92.552 64.3487 92.16 64.8687 91.88C65.3887 91.592 65.9767 91.448 66.6327 91.448C67.2647 91.448 67.8327 91.584 68.3367 91.856C68.8487 92.12 69.2527 92.504 69.5487 93.008C69.8447 93.504 69.9927 94.1 69.9927 94.796C69.9927 94.868 69.9887 94.952 69.9807 95.048C69.9727 95.136 69.9647 95.22 69.9567 95.3H64.7127V94.208H68.9727L68.2527 94.532C68.2527 94.196 68.1847 93.904 68.0487 93.656C67.9127 93.408 67.7247 93.216 67.4847 93.08C67.2447 92.936 66.9647 92.864 66.6447 92.864C66.3247 92.864 66.0407 92.936 65.7927 93.08C65.5527 93.216 65.3647 93.412 65.2287 93.668C65.0927 93.916 65.0247 94.212 65.0247 94.556V94.844C65.0247 95.196 65.1007 95.508 65.2527 95.78C65.4127 96.044 65.6327 96.248 65.9127 96.392C66.2007 96.528 66.5367 96.596 66.9207 96.596C67.2647 96.596 67.5647 96.544 67.8207 96.44C68.0847 96.336 68.3247 96.18 68.5407 95.972L69.5367 97.052C69.2407 97.388 68.8687 97.648 68.4207 97.832C67.9727 98.008 67.4567 98.096 66.8727 98.096ZM73.411 98.096C72.859 98.096 72.327 98.032 71.815 97.904C71.311 97.768 70.911 97.6 70.615 97.4L71.239 96.056C71.535 96.24 71.883 96.392 72.283 96.512C72.691 96.624 73.091 96.68 73.483 96.68C73.915 96.68 74.219 96.628 74.395 96.524C74.579 96.42 74.671 96.276 74.671 96.092C74.671 95.94 74.599 95.828 74.455 95.756C74.319 95.676 74.135 95.616 73.903 95.576C73.671 95.536 73.415 95.496 73.135 95.456C72.863 95.416 72.587 95.364 72.307 95.3C72.027 95.228 71.771 95.124 71.539 94.988C71.307 94.852 71.119 94.668 70.975 94.436C70.839 94.204 70.771 93.904 70.771 93.536C70.771 93.128 70.887 92.768 71.119 92.456C71.359 92.144 71.703 91.9 72.151 91.724C72.599 91.54 73.135 91.448 73.759 91.448C74.199 91.448 74.647 91.496 75.103 91.592C75.559 91.688 75.939 91.828 76.243 92.012L75.619 93.344C75.307 93.16 74.991 93.036 74.671 92.972C74.359 92.9 74.055 92.864 73.759 92.864C73.343 92.864 73.039 92.92 72.847 93.032C72.655 93.144 72.559 93.288 72.559 93.464C72.559 93.624 72.627 93.744 72.763 93.824C72.907 93.904 73.095 93.968 73.327 94.016C73.559 94.064 73.811 94.108 74.083 94.148C74.363 94.18 74.643 94.232 74.923 94.304C75.203 94.376 75.455 94.48 75.679 94.616C75.911 94.744 76.099 94.924 76.243 95.156C76.387 95.38 76.459 95.676 76.459 96.044C76.459 96.444 76.339 96.8 76.099 97.112C75.859 97.416 75.511 97.656 75.055 97.832C74.607 98.008 74.059 98.096 73.411 98.096ZM80.818 98.096C80.082 98.096 79.434 97.952 78.874 97.664C78.322 97.376 77.894 96.984 77.59 96.488C77.286 95.984 77.134 95.412 77.134 94.772C77.134 94.124 77.282 93.552 77.578 93.056C77.882 92.552 78.294 92.16 78.814 91.88C79.334 91.592 79.922 91.448 80.578 91.448C81.21 91.448 81.778 91.584 82.282 91.856C82.794 92.12 83.198 92.504 83.494 93.008C83.79 93.504 83.938 94.1 83.938 94.796C83.938 94.868 83.934 94.952 83.926 95.048C83.918 95.136 83.91 95.22 83.902 95.3H78.658V94.208H82.918L82.198 94.532C82.198 94.196 82.13 93.904 81.994 93.656C81.858 93.408 81.67 93.216 81.43 93.08C81.19 92.936 80.91 92.864 80.59 92.864C80.27 92.864 79.986 92.936 79.738 93.08C79.498 93.216 79.31 93.412 79.174 93.668C79.038 93.916 78.97 94.212 78.97 94.556V94.844C78.97 95.196 79.046 95.508 79.198 95.78C79.358 96.044 79.578 96.248 79.858 96.392C80.146 96.528 80.482 96.596 80.866 96.596C81.21 96.596 81.51 96.544 81.766 96.44C82.03 96.336 82.27 96.18 82.486 95.972L83.482 97.052C83.186 97.388 82.814 97.648 82.366 97.832C81.918 98.008 81.402 98.096 80.818 98.096ZM90.1308 96.68L90.1788 94.4L93.1908 91.544H95.4228L92.5308 94.484L91.5588 95.276L90.1308 96.68ZM88.5828 98V89.096H90.4548V98H88.5828ZM93.3948 98L91.2108 95.288L92.3868 93.836L95.6628 98H93.3948ZM99.4391 98.096C98.7031 98.096 98.0551 97.952 97.4951 97.664C96.9431 97.376 96.5151 96.984 96.2111 96.488C95.9071 95.984 95.7551 95.412 95.7551 94.772C95.7551 94.124 95.9031 93.552 96.1991 93.056C96.5031 92.552 96.9151 92.16 97.4351 91.88C97.9551 91.592 98.5431 91.448 99.1991 91.448C99.8311 91.448 100.399 91.584 100.903 91.856C101.415 92.12 101.819 92.504 102.115 93.008C102.411 93.504 102.559 94.1 102.559 94.796C102.559 94.868 102.555 94.952 102.547 95.048C102.539 95.136 102.531 95.22 102.523 95.3H97.2791V94.208H101.539L100.819 94.532C100.819 94.196 100.751 93.904 100.615 93.656C100.479 93.408 100.291 93.216 100.051 93.08C99.8111 92.936 99.5311 92.864 99.2111 92.864C98.8911 92.864 98.6071 92.936 98.3591 93.08C98.1191 93.216 97.9311 93.412 97.7951 93.668C97.6591 93.916 97.5911 94.212 97.5911 94.556V94.844C97.5911 95.196 97.6671 95.508 97.8191 95.78C97.9791 96.044 98.1991 96.248 98.4791 96.392C98.7671 96.528 99.1031 96.596 99.4871 96.596C99.8311 96.596 100.131 96.544 100.387 96.44C100.651 96.336 100.891 96.18 101.107 95.972L102.103 97.052C101.807 97.388 101.435 97.648 100.987 97.832C100.539 98.008 100.023 98.096 99.4391 98.096ZM104.504 100.424C104.168 100.424 103.836 100.372 103.508 100.268C103.18 100.164 102.912 100.02 102.704 99.836L103.388 98.504C103.532 98.632 103.696 98.732 103.88 98.804C104.072 98.876 104.26 98.912 104.444 98.912C104.708 98.912 104.916 98.848 105.068 98.72C105.228 98.6 105.372 98.396 105.5 98.108L105.836 97.316L105.98 97.112L108.296 91.544H110.096L107.18 98.396C106.972 98.916 106.732 99.324 106.46 99.62C106.196 99.916 105.9 100.124 105.572 100.244C105.252 100.364 104.896 100.424 104.504 100.424ZM105.608 98.252L102.728 91.544H104.66L106.892 96.944L105.608 98.252ZM112.938 98.096C112.386 98.096 111.854 98.032 111.342 97.904C110.838 97.768 110.438 97.6 110.142 97.4L110.766 96.056C111.062 96.24 111.41 96.392 111.81 96.512C112.218 96.624 112.618 96.68 113.01 96.68C113.442 96.68 113.746 96.628 113.922 96.524C114.106 96.42 114.198 96.276 114.198 96.092C114.198 95.94 114.126 95.828 113.982 95.756C113.846 95.676 113.662 95.616 113.43 95.576C113.198 95.536 112.942 95.496 112.662 95.456C112.39 95.416 112.114 95.364 111.834 95.3C111.554 95.228 111.298 95.124 111.066 94.988C110.834 94.852 110.646 94.668 110.502 94.436C110.366 94.204 110.298 93.904 110.298 93.536C110.298 93.128 110.414 92.768 110.646 92.456C110.886 92.144 111.23 91.9 111.678 91.724C112.126 91.54 112.662 91.448 113.286 91.448C113.726 91.448 114.174 91.496 114.63 91.592C115.086 91.688 115.466 91.828 115.77 92.012L115.146 93.344C114.834 93.16 114.518 93.036 114.198 92.972C113.886 92.9 113.582 92.864 113.286 92.864C112.87 92.864 112.566 92.92 112.374 93.032C112.182 93.144 112.086 93.288 112.086 93.464C112.086 93.624 112.154 93.744 112.29 93.824C112.434 93.904 112.622 93.968 112.854 94.016C113.086 94.064 113.338 94.108 113.61 94.148C113.89 94.18 114.17 94.232 114.45 94.304C114.73 94.376 114.982 94.48 115.206 94.616C115.438 94.744 115.626 94.924 115.77 95.156C115.914 95.38 115.986 95.676 115.986 96.044C115.986 96.444 115.866 96.8 115.626 97.112C115.386 97.416 115.038 97.656 114.582 97.832C114.134 98.008 113.586 98.096 112.938 98.096ZM123.18 98.096C122.42 98.096 121.828 97.904 121.404 97.52C120.98 97.128 120.768 96.548 120.768 95.78V90.116H122.64V95.756C122.64 96.028 122.712 96.24 122.856 96.392C123 96.536 123.196 96.608 123.444 96.608C123.74 96.608 123.992 96.528 124.2 96.368L124.704 97.688C124.512 97.824 124.28 97.928 124.008 98C123.744 98.064 123.468 98.096 123.18 98.096ZM119.772 93.128V91.688H124.248V93.128H119.772ZM128.627 98.096C127.939 98.096 127.327 97.952 126.791 97.664C126.263 97.376 125.843 96.984 125.531 96.488C125.227 95.984 125.075 95.412 125.075 94.772C125.075 94.124 125.227 93.552 125.531 93.056C125.843 92.552 126.263 92.16 126.791 91.88C127.327 91.592 127.939 91.448 128.627 91.448C129.307 91.448 129.915 91.592 130.451 91.88C130.987 92.16 131.407 92.548 131.711 93.044C132.015 93.54 132.167 94.116 132.167 94.772C132.167 95.412 132.015 95.984 131.711 96.488C131.407 96.984 130.987 97.376 130.451 97.664C129.915 97.952 129.307 98.096 128.627 98.096ZM128.627 96.56C128.939 96.56 129.219 96.488 129.467 96.344C129.715 96.2 129.911 95.996 130.055 95.732C130.199 95.46 130.271 95.14 130.271 94.772C130.271 94.396 130.199 94.076 130.055 93.812C129.911 93.548 129.715 93.344 129.467 93.2C129.219 93.056 128.939 92.984 128.627 92.984C128.315 92.984 128.035 93.056 127.787 93.2C127.539 93.344 127.339 93.548 127.187 93.812C127.043 94.076 126.971 94.396 126.971 94.772C126.971 95.14 127.043 95.46 127.187 95.732C127.339 95.996 127.539 96.2 127.787 96.344C128.035 96.488 128.315 96.56 128.627 96.56ZM43.1379 106.448C43.6499 106.448 44.1019 106.552 44.4939 106.76C44.8939 106.96 45.2059 107.272 45.4299 107.696C45.6619 108.112 45.7779 108.648 45.7779 109.304V113H43.9059V109.592C43.9059 109.072 43.7979 108.688 43.5819 108.44C43.3659 108.192 43.0619 108.068 42.6699 108.068C42.3979 108.068 42.1539 108.132 41.9379 108.26C41.7219 108.38 41.5539 108.564 41.4339 108.812C41.3139 109.06 41.2539 109.376 41.2539 109.76V113H39.3819V109.592C39.3819 109.072 39.2739 108.688 39.0579 108.44C38.8499 108.192 38.5499 108.068 38.1579 108.068C37.8859 108.068 37.6419 108.132 37.4259 108.26C37.2099 108.38 37.0419 108.564 36.9219 108.812C36.8019 109.06 36.7419 109.376 36.7419 109.76V113H34.8699V106.544H36.6579V108.308L36.3219 107.792C36.5459 107.352 36.8619 107.02 37.2699 106.796C37.6859 106.564 38.1579 106.448 38.6859 106.448C39.2779 106.448 39.7939 106.6 40.2339 106.904C40.6819 107.2 40.9779 107.656 41.1219 108.272L40.4619 108.092C40.6779 107.588 41.0219 107.188 41.4939 106.892C41.9739 106.596 42.5219 106.448 43.1379 106.448ZM50.5747 113.096C49.8867 113.096 49.2747 112.952 48.7387 112.664C48.2107 112.376 47.7907 111.984 47.4787 111.488C47.1747 110.984 47.0227 110.412 47.0227 109.772C47.0227 109.124 47.1747 108.552 47.4787 108.056C47.7907 107.552 48.2107 107.16 48.7387 106.88C49.2747 106.592 49.8867 106.448 50.5747 106.448C51.2547 106.448 51.8627 106.592 52.3987 106.88C52.9347 107.16 53.3547 107.548 53.6587 108.044C53.9627 108.54 54.1147 109.116 54.1147 109.772C54.1147 110.412 53.9627 110.984 53.6587 111.488C53.3547 111.984 52.9347 112.376 52.3987 112.664C51.8627 112.952 51.2547 113.096 50.5747 113.096ZM50.5747 111.56C50.8867 111.56 51.1667 111.488 51.4147 111.344C51.6627 111.2 51.8587 110.996 52.0027 110.732C52.1467 110.46 52.2187 110.14 52.2187 109.772C52.2187 109.396 52.1467 109.076 52.0027 108.812C51.8587 108.548 51.6627 108.344 51.4147 108.2C51.1667 108.056 50.8867 107.984 50.5747 107.984C50.2627 107.984 49.9827 108.056 49.7347 108.2C49.4867 108.344 49.2867 108.548 49.1347 108.812C48.9907 109.076 48.9187 109.396 48.9187 109.772C48.9187 110.14 48.9907 110.46 49.1347 110.732C49.2867 110.996 49.4867 111.2 49.7347 111.344C49.9827 111.488 50.2627 111.56 50.5747 111.56ZM56.9422 113L54.2302 106.544H56.1622L58.4182 112.1H57.4582L59.7982 106.544H61.5982L58.8742 113H56.9422ZM65.3903 113.096C64.6543 113.096 64.0063 112.952 63.4463 112.664C62.8943 112.376 62.4663 111.984 62.1623 111.488C61.8583 110.984 61.7063 110.412 61.7063 109.772C61.7063 109.124 61.8543 108.552 62.1503 108.056C62.4543 107.552 62.8663 107.16 63.3863 106.88C63.9063 106.592 64.4943 106.448 65.1503 106.448C65.7823 106.448 66.3503 106.584 66.8543 106.856C67.3663 107.12 67.7703 107.504 68.0663 108.008C68.3623 108.504 68.5103 109.1 68.5103 109.796C68.5103 109.868 68.5063 109.952 68.4983 110.048C68.4903 110.136 68.4823 110.22 68.4743 110.3H63.2303V109.208H67.4903L66.7703 109.532C66.7703 109.196 66.7023 108.904 66.5663 108.656C66.4303 108.408 66.2423 108.216 66.0023 108.08C65.7623 107.936 65.4823 107.864 65.1623 107.864C64.8423 107.864 64.5583 107.936 64.3103 108.08C64.0703 108.216 63.8823 108.412 63.7463 108.668C63.6103 108.916 63.5423 109.212 63.5423 109.556V109.844C63.5423 110.196 63.6183 110.508 63.7703 110.78C63.9303 111.044 64.1503 111.248 64.4303 111.392C64.7183 111.528 65.0543 111.596 65.4383 111.596C65.7823 111.596 66.0823 111.544 66.3383 111.44C66.6023 111.336 66.8423 111.18 67.0583 110.972L68.0543 112.052C67.7583 112.388 67.3863 112.648 66.9383 112.832C66.4903 113.008 65.9743 113.096 65.3903 113.096ZM77.115 113V111.74L76.995 111.464V109.208C76.995 108.808 76.871 108.496 76.623 108.272C76.383 108.048 76.011 107.936 75.507 107.936C75.163 107.936 74.823 107.992 74.487 108.104C74.159 108.208 73.879 108.352 73.647 108.536L72.975 107.228C73.327 106.98 73.751 106.788 74.247 106.652C74.743 106.516 75.247 106.448 75.759 106.448C76.743 106.448 77.507 106.68 78.051 107.144C78.595 107.608 78.867 108.332 78.867 109.316V113H77.115ZM75.147 113.096C74.643 113.096 74.211 113.012 73.851 112.844C73.491 112.668 73.215 112.432 73.023 112.136C72.831 111.84 72.735 111.508 72.735 111.14C72.735 110.756 72.827 110.42 73.011 110.132C73.203 109.844 73.503 109.62 73.911 109.46C74.319 109.292 74.851 109.208 75.507 109.208H77.223V110.3H75.711C75.271 110.3 74.967 110.372 74.799 110.516C74.639 110.66 74.559 110.84 74.559 111.056C74.559 111.296 74.651 111.488 74.835 111.632C75.027 111.768 75.287 111.836 75.615 111.836C75.927 111.836 76.207 111.764 76.455 111.62C76.703 111.468 76.883 111.248 76.995 110.96L77.283 111.824C77.147 112.24 76.899 112.556 76.539 112.772C76.179 112.988 75.715 113.096 75.147 113.096ZM80.5613 113V106.544H82.3493V108.368L82.0973 107.84C82.2893 107.384 82.5973 107.04 83.0213 106.808C83.4453 106.568 83.9613 106.448 84.5693 106.448V108.176C84.4893 108.168 84.4173 108.164 84.3533 108.164C84.2893 108.156 84.2213 108.152 84.1493 108.152C83.6373 108.152 83.2213 108.3 82.9013 108.596C82.5893 108.884 82.4333 109.336 82.4333 109.952V113H80.5613ZM88.7075 113.096C88.0195 113.096 87.4075 112.952 86.8715 112.664C86.3435 112.376 85.9235 111.984 85.6115 111.488C85.3075 110.984 85.1555 110.412 85.1555 109.772C85.1555 109.124 85.3075 108.552 85.6115 108.056C85.9235 107.552 86.3435 107.16 86.8715 106.88C87.4075 106.592 88.0195 106.448 88.7075 106.448C89.3875 106.448 89.9955 106.592 90.5315 106.88C91.0675 107.16 91.4875 107.548 91.7915 108.044C92.0955 108.54 92.2475 109.116 92.2475 109.772C92.2475 110.412 92.0955 110.984 91.7915 111.488C91.4875 111.984 91.0675 112.376 90.5315 112.664C89.9955 112.952 89.3875 113.096 88.7075 113.096ZM88.7075 111.56C89.0195 111.56 89.2995 111.488 89.5475 111.344C89.7955 111.2 89.9915 110.996 90.1355 110.732C90.2795 110.46 90.3515 110.14 90.3515 109.772C90.3515 109.396 90.2795 109.076 90.1355 108.812C89.9915 108.548 89.7955 108.344 89.5475 108.2C89.2995 108.056 89.0195 107.984 88.7075 107.984C88.3955 107.984 88.1155 108.056 87.8675 108.2C87.6195 108.344 87.4195 108.548 87.2675 108.812C87.1235 109.076 87.0515 109.396 87.0515 109.772C87.0515 110.14 87.1235 110.46 87.2675 110.732C87.4195 110.996 87.6195 111.2 87.8675 111.344C88.1155 111.488 88.3955 111.56 88.7075 111.56ZM96.2228 113.096C95.6868 113.096 95.2068 112.992 94.7828 112.784C94.3668 112.576 94.0428 112.26 93.8108 111.836C93.5788 111.404 93.4628 110.856 93.4628 110.192V106.544H95.3348V109.916C95.3348 110.452 95.4468 110.848 95.6708 111.104C95.9028 111.352 96.2268 111.476 96.6428 111.476C96.9308 111.476 97.1868 111.416 97.4108 111.296C97.6348 111.168 97.8108 110.976 97.9388 110.72C98.0668 110.456 98.1308 110.128 98.1308 109.736V106.544H100.003V113H98.2268V111.224L98.5508 111.74C98.3348 112.188 98.0148 112.528 97.5908 112.76C97.1748 112.984 96.7188 113.096 96.2228 113.096ZM105.661 106.448C106.173 106.448 106.629 106.552 107.029 106.76C107.437 106.96 107.757 107.272 107.989 107.696C108.221 108.112 108.337 108.648 108.337 109.304V113H106.465V109.592C106.465 109.072 106.349 108.688 106.117 108.44C105.893 108.192 105.573 108.068 105.157 108.068C104.861 108.068 104.593 108.132 104.353 108.26C104.121 108.38 103.937 108.568 103.801 108.824C103.673 109.08 103.609 109.408 103.609 109.808V113H101.737V106.544H103.525V108.332L103.189 107.792C103.421 107.36 103.753 107.028 104.185 106.796C104.617 106.564 105.109 106.448 105.661 106.448ZM112.853 113.096C112.245 113.096 111.697 112.96 111.209 112.688C110.721 112.408 110.333 112.02 110.045 111.524C109.765 111.028 109.625 110.444 109.625 109.772C109.625 109.092 109.765 108.504 110.045 108.008C110.333 107.512 110.721 107.128 111.209 106.856C111.697 106.584 112.245 106.448 112.853 106.448C113.397 106.448 113.873 106.568 114.281 106.808C114.689 107.048 115.005 107.412 115.229 107.9C115.453 108.388 115.565 109.012 115.565 109.772C115.565 110.524 115.457 111.148 115.241 111.644C115.025 112.132 114.713 112.496 114.305 112.736C113.905 112.976 113.421 113.096 112.853 113.096ZM113.177 111.56C113.481 111.56 113.757 111.488 114.005 111.344C114.253 111.2 114.449 110.996 114.593 110.732C114.745 110.46 114.821 110.14 114.821 109.772C114.821 109.396 114.745 109.076 114.593 108.812C114.449 108.548 114.253 108.344 114.005 108.2C113.757 108.056 113.481 107.984 113.177 107.984C112.865 107.984 112.585 108.056 112.337 108.2C112.089 108.344 111.889 108.548 111.737 108.812C111.593 109.076 111.521 109.396 111.521 109.772C111.521 110.14 111.593 110.46 111.737 110.732C111.889 110.996 112.089 111.2 112.337 111.344C112.585 111.488 112.865 111.56 113.177 111.56ZM114.869 113V111.68L114.905 109.76L114.785 107.852V104.096H116.657V113H114.869ZM118.521 110.084L118.149 104.6H120.381L120.009 110.084H118.521ZM119.265 113.096C118.929 113.096 118.653 112.988 118.437 112.772C118.221 112.556 118.113 112.3 118.113 112.004C118.113 111.7 118.221 111.448 118.437 111.248C118.653 111.04 118.929 110.936 119.265 110.936C119.609 110.936 119.885 111.04 120.093 111.248C120.309 111.448 120.417 111.7 120.417 112.004C120.417 112.3 120.309 112.556 120.093 112.772C119.885 112.988 119.609 113.096 119.265 113.096Z" fill="white"/>
<path d="M213 25C213 16.7157 219.716 10 228 10H231.274H234.548C242.833 10 249.548 16.7157 249.548 25V37.1502V49.3004C249.548 57.5847 242.833 64.3004 234.548 64.3004H228C219.716 64.3004 213 57.5847 213 49.3004V37.1502V25Z" fill="white"/>
<path d="M231.274 10H228C219.716 10 213 16.7157 213 25V37.1502M231.274 10H234.548C242.833 10 249.548 16.7157 249.548 25V37.1502M231.274 10V37.1502M231.274 37.1502H213M231.274 37.1502H249.548M213 37.1502V49.3004C213 57.5847 219.716 64.3004 228 64.3004H234.548C242.833 64.3004 249.548 57.5847 249.548 49.3004V37.1502" stroke="black" stroke-width="3.54"/>
<rect x="226.893" y="15.5397" width="8.76119" height="15.0266" rx="4.3806" fill="white" stroke="black" stroke-width="3.54"/>
<path d="M208.695 98.144C207.503 98.144 206.571 97.812 205.899 97.148C205.227 96.484 204.891 95.536 204.891 94.304V89.6H206.835V94.232C206.835 95.032 206.999 95.608 207.327 95.96C207.655 96.312 208.115 96.488 208.707 96.488C209.299 96.488 209.759 96.312 210.087 95.96C210.415 95.608 210.579 95.032 210.579 94.232V89.6H212.499V94.304C212.499 95.536 212.163 96.484 211.491 97.148C210.819 97.812 209.887 98.144 208.695 98.144ZM216.46 98.096C215.908 98.096 215.376 98.032 214.864 97.904C214.36 97.768 213.96 97.6 213.664 97.4L214.288 96.056C214.584 96.24 214.932 96.392 215.332 96.512C215.74 96.624 216.14 96.68 216.532 96.68C216.964 96.68 217.268 96.628 217.444 96.524C217.628 96.42 217.72 96.276 217.72 96.092C217.72 95.94 217.648 95.828 217.504 95.756C217.368 95.676 217.184 95.616 216.952 95.576C216.72 95.536 216.464 95.496 216.184 95.456C215.912 95.416 215.636 95.364 215.356 95.3C215.076 95.228 214.82 95.124 214.588 94.988C214.356 94.852 214.168 94.668 214.024 94.436C213.888 94.204 213.82 93.904 213.82 93.536C213.82 93.128 213.936 92.768 214.168 92.456C214.408 92.144 214.752 91.9 215.2 91.724C215.648 91.54 216.184 91.448 216.808 91.448C217.248 91.448 217.696 91.496 218.152 91.592C218.608 91.688 218.988 91.828 219.292 92.012L218.668 93.344C218.356 93.16 218.04 93.036 217.72 92.972C217.408 92.9 217.104 92.864 216.808 92.864C216.392 92.864 216.088 92.92 215.896 93.032C215.704 93.144 215.608 93.288 215.608 93.464C215.608 93.624 215.676 93.744 215.812 93.824C215.956 93.904 216.144 93.968 216.376 94.016C216.608 94.064 216.86 94.108 217.132 94.148C217.412 94.18 217.692 94.232 217.972 94.304C218.252 94.376 218.504 94.48 218.728 94.616C218.96 94.744 219.148 94.924 219.292 95.156C219.436 95.38 219.508 95.676 219.508 96.044C219.508 96.444 219.388 96.8 219.148 97.112C218.908 97.416 218.56 97.656 218.104 97.832C217.656 98.008 217.108 98.096 216.46 98.096ZM223.867 98.096C223.131 98.096 222.483 97.952 221.923 97.664C221.371 97.376 220.943 96.984 220.639 96.488C220.335 95.984 220.183 95.412 220.183 94.772C220.183 94.124 220.331 93.552 220.627 93.056C220.931 92.552 221.343 92.16 221.863 91.88C222.383 91.592 222.971 91.448 223.627 91.448C224.259 91.448 224.827 91.584 225.331 91.856C225.843 92.12 226.247 92.504 226.543 93.008C226.839 93.504 226.987 94.1 226.987 94.796C226.987 94.868 226.983 94.952 226.975 95.048C226.967 95.136 226.959 95.22 226.951 95.3H221.707V94.208H225.967L225.247 94.532C225.247 94.196 225.179 93.904 225.043 93.656C224.907 93.408 224.719 93.216 224.479 93.08C224.239 92.936 223.959 92.864 223.639 92.864C223.319 92.864 223.035 92.936 222.787 93.08C222.547 93.216 222.359 93.412 222.223 93.668C222.087 93.916 222.019 94.212 222.019 94.556V94.844C222.019 95.196 222.095 95.508 222.247 95.78C222.407 96.044 222.627 96.248 222.907 96.392C223.195 96.528 223.531 96.596 223.915 96.596C224.259 96.596 224.559 96.544 224.815 96.44C225.079 96.336 225.319 96.18 225.535 95.972L226.531 97.052C226.235 97.388 225.863 97.648 225.415 97.832C224.967 98.008 224.451 98.096 223.867 98.096ZM232.448 100.424C232.112 100.424 231.78 100.372 231.452 100.268C231.124 100.164 230.856 100.02 230.648 99.836L231.332 98.504C231.476 98.632 231.64 98.732 231.824 98.804C232.016 98.876 232.204 98.912 232.388 98.912C232.652 98.912 232.86 98.848 233.012 98.72C233.172 98.6 233.316 98.396 233.444 98.108L233.78 97.316L233.924 97.112L236.24 91.544H238.04L235.124 98.396C234.916 98.916 234.676 99.324 234.404 99.62C234.14 99.916 233.844 100.124 233.516 100.244C233.196 100.364 232.84 100.424 232.448 100.424ZM233.552 98.252L230.672 91.544H232.604L234.836 96.944L233.552 98.252ZM241.7 98.096C241.012 98.096 240.4 97.952 239.864 97.664C239.336 97.376 238.916 96.984 238.604 96.488C238.3 95.984 238.148 95.412 238.148 94.772C238.148 94.124 238.3 93.552 238.604 93.056C238.916 92.552 239.336 92.16 239.864 91.88C240.4 91.592 241.012 91.448 241.7 91.448C242.38 91.448 242.988 91.592 243.524 91.88C244.06 92.16 244.48 92.548 244.784 93.044C245.088 93.54 245.24 94.116 245.24 94.772C245.24 95.412 245.088 95.984 244.784 96.488C244.48 96.984 244.06 97.376 243.524 97.664C242.988 97.952 242.38 98.096 241.7 98.096ZM241.7 96.56C242.012 96.56 242.292 96.488 242.54 96.344C242.788 96.2 242.984 95.996 243.128 95.732C243.272 95.46 243.344 95.14 243.344 94.772C243.344 94.396 243.272 94.076 243.128 93.812C242.984 93.548 242.788 93.344 242.54 93.2C242.292 93.056 242.012 92.984 241.7 92.984C241.388 92.984 241.108 93.056 240.86 93.2C240.612 93.344 240.412 93.548 240.26 93.812C240.116 94.076 240.044 94.396 240.044 94.772C240.044 95.14 240.116 95.46 240.26 95.732C240.412 95.996 240.612 96.2 240.86 96.344C241.108 96.488 241.388 96.56 241.7 96.56ZM249.215 98.096C248.679 98.096 248.199 97.992 247.775 97.784C247.359 97.576 247.035 97.26 246.803 96.836C246.571 96.404 246.455 95.856 246.455 95.192V91.544H248.327V94.916C248.327 95.452 248.439 95.848 248.663 96.104C248.895 96.352 249.219 96.476 249.635 96.476C249.923 96.476 250.179 96.416 250.403 96.296C250.627 96.168 250.803 95.976 250.931 95.72C251.059 95.456 251.123 95.128 251.123 94.736V91.544H252.995V98H251.219V96.224L251.543 96.74C251.327 97.188 251.007 97.528 250.583 97.76C250.167 97.984 249.711 98.096 249.215 98.096ZM254.729 98V91.544H256.517V93.368L256.265 92.84C256.457 92.384 256.765 92.04 257.189 91.808C257.613 91.568 258.129 91.448 258.737 91.448V93.176C258.657 93.168 258.585 93.164 258.521 93.164C258.457 93.156 258.389 93.152 258.317 93.152C257.805 93.152 257.389 93.3 257.069 93.596C256.757 93.884 256.601 94.336 256.601 94.952V98H254.729ZM195.919 106.448C196.431 106.448 196.883 106.552 197.275 106.76C197.675 106.96 197.987 107.272 198.211 107.696C198.443 108.112 198.559 108.648 198.559 109.304V113H196.687V109.592C196.687 109.072 196.579 108.688 196.363 108.44C196.147 108.192 195.843 108.068 195.451 108.068C195.179 108.068 194.935 108.132 194.719 108.26C194.503 108.38 194.335 108.564 194.215 108.812C194.095 109.06 194.035 109.376 194.035 109.76V113H192.163V109.592C192.163 109.072 192.055 108.688 191.839 108.44C191.631 108.192 191.331 108.068 190.939 108.068C190.667 108.068 190.423 108.132 190.207 108.26C189.991 108.38 189.823 108.564 189.703 108.812C189.583 109.06 189.523 109.376 189.523 109.76V113H187.651V106.544H189.439V108.308L189.103 107.792C189.327 107.352 189.643 107.02 190.051 106.796C190.467 106.564 190.939 106.448 191.467 106.448C192.059 106.448 192.575 106.6 193.015 106.904C193.463 107.2 193.759 107.656 193.903 108.272L193.243 108.092C193.459 107.588 193.803 107.188 194.275 106.892C194.755 106.596 195.303 106.448 195.919 106.448ZM203.356 113.096C202.668 113.096 202.056 112.952 201.52 112.664C200.992 112.376 200.572 111.984 200.26 111.488C199.956 110.984 199.804 110.412 199.804 109.772C199.804 109.124 199.956 108.552 200.26 108.056C200.572 107.552 200.992 107.16 201.52 106.88C202.056 106.592 202.668 106.448 203.356 106.448C204.036 106.448 204.644 106.592 205.18 106.88C205.716 107.16 206.136 107.548 206.44 108.044C206.744 108.54 206.896 109.116 206.896 109.772C206.896 110.412 206.744 110.984 206.44 111.488C206.136 111.984 205.716 112.376 205.18 112.664C204.644 112.952 204.036 113.096 203.356 113.096ZM203.356 111.56C203.668 111.56 203.948 111.488 204.196 111.344C204.444 111.2 204.64 110.996 204.784 110.732C204.928 110.46 205 110.14 205 109.772C205 109.396 204.928 109.076 204.784 108.812C204.64 108.548 204.444 108.344 204.196 108.2C203.948 108.056 203.668 107.984 203.356 107.984C203.044 107.984 202.764 108.056 202.516 108.2C202.268 108.344 202.068 108.548 201.916 108.812C201.772 109.076 201.7 109.396 201.7 109.772C201.7 110.14 201.772 110.46 201.916 110.732C202.068 110.996 202.268 111.2 202.516 111.344C202.764 111.488 203.044 111.56 203.356 111.56ZM210.871 113.096C210.335 113.096 209.855 112.992 209.431 112.784C209.015 112.576 208.691 112.26 208.459 111.836C208.227 111.404 208.111 110.856 208.111 110.192V106.544H209.983V109.916C209.983 110.452 210.095 110.848 210.319 111.104C210.551 111.352 210.875 111.476 211.291 111.476C211.579 111.476 211.835 111.416 212.059 111.296C212.283 111.168 212.459 110.976 212.587 110.72C212.715 110.456 212.779 110.128 212.779 109.736V106.544H214.651V113H212.875V111.224L213.199 111.74C212.983 112.188 212.663 112.528 212.239 112.76C211.823 112.984 211.367 113.096 210.871 113.096ZM218.557 113.096C218.005 113.096 217.473 113.032 216.961 112.904C216.457 112.768 216.057 112.6 215.761 112.4L216.385 111.056C216.681 111.24 217.029 111.392 217.429 111.512C217.837 111.624 218.237 111.68 218.629 111.68C219.061 111.68 219.365 111.628 219.541 111.524C219.725 111.42 219.817 111.276 219.817 111.092C219.817 110.94 219.745 110.828 219.601 110.756C219.465 110.676 219.281 110.616 219.049 110.576C218.817 110.536 218.561 110.496 218.281 110.456C218.009 110.416 217.733 110.364 217.453 110.3C217.173 110.228 216.917 110.124 216.685 109.988C216.453 109.852 216.265 109.668 216.121 109.436C215.985 109.204 215.917 108.904 215.917 108.536C215.917 108.128 216.033 107.768 216.265 107.456C216.505 107.144 216.849 106.9 217.297 106.724C217.745 106.54 218.281 106.448 218.905 106.448C219.345 106.448 219.793 106.496 220.249 106.592C220.705 106.688 221.085 106.828 221.389 107.012L220.765 108.344C220.453 108.16 220.137 108.036 219.817 107.972C219.505 107.9 219.201 107.864 218.905 107.864C218.489 107.864 218.185 107.92 217.993 108.032C217.801 108.144 217.705 108.288 217.705 108.464C217.705 108.624 217.773 108.744 217.909 108.824C218.053 108.904 218.241 108.968 218.473 109.016C218.705 109.064 218.957 109.108 219.229 109.148C219.509 109.18 219.789 109.232 220.069 109.304C220.349 109.376 220.601 109.48 220.825 109.616C221.057 109.744 221.245 109.924 221.389 110.156C221.533 110.38 221.605 110.676 221.605 111.044C221.605 111.444 221.485 111.8 221.245 112.112C221.005 112.416 220.657 112.656 220.201 112.832C219.753 113.008 219.205 113.096 218.557 113.096ZM225.964 113.096C225.228 113.096 224.58 112.952 224.02 112.664C223.468 112.376 223.04 111.984 222.736 111.488C222.432 110.984 222.28 110.412 222.28 109.772C222.28 109.124 222.428 108.552 222.724 108.056C223.028 107.552 223.44 107.16 223.96 106.88C224.48 106.592 225.068 106.448 225.724 106.448C226.356 106.448 226.924 106.584 227.428 106.856C227.94 107.12 228.344 107.504 228.64 108.008C228.936 108.504 229.084 109.1 229.084 109.796C229.084 109.868 229.08 109.952 229.072 110.048C229.064 110.136 229.056 110.22 229.048 110.3H223.804V109.208H228.064L227.344 109.532C227.344 109.196 227.276 108.904 227.14 108.656C227.004 108.408 226.816 108.216 226.576 108.08C226.336 107.936 226.056 107.864 225.736 107.864C225.416 107.864 225.132 107.936 224.884 108.08C224.644 108.216 224.456 108.412 224.32 108.668C224.184 108.916 224.116 109.212 224.116 109.556V109.844C224.116 110.196 224.192 110.508 224.344 110.78C224.504 111.044 224.724 111.248 225.004 111.392C225.292 111.528 225.628 111.596 226.012 111.596C226.356 111.596 226.656 111.544 226.912 111.44C227.176 111.336 227.416 111.18 227.632 110.972L228.628 112.052C228.332 112.388 227.96 112.648 227.512 112.832C227.064 113.008 226.548 113.096 225.964 113.096ZM236.369 113.096C235.609 113.096 235.017 112.904 234.593 112.52C234.169 112.128 233.957 111.548 233.957 110.78V105.116H235.829V110.756C235.829 111.028 235.901 111.24 236.045 111.392C236.189 111.536 236.385 111.608 236.633 111.608C236.929 111.608 237.181 111.528 237.389 111.368L237.893 112.688C237.701 112.824 237.469 112.928 237.197 113C236.933 113.064 236.657 113.096 236.369 113.096ZM232.961 108.128V106.688H237.437V108.128H232.961ZM241.817 113.096C241.129 113.096 240.517 112.952 239.981 112.664C239.453 112.376 239.033 111.984 238.721 111.488C238.417 110.984 238.265 110.412 238.265 109.772C238.265 109.124 238.417 108.552 238.721 108.056C239.033 107.552 239.453 107.16 239.981 106.88C240.517 106.592 241.129 106.448 241.817 106.448C242.497 106.448 243.105 106.592 243.641 106.88C244.177 107.16 244.597 107.548 244.901 108.044C245.205 108.54 245.357 109.116 245.357 109.772C245.357 110.412 245.205 110.984 244.901 111.488C244.597 111.984 244.177 112.376 243.641 112.664C243.105 112.952 242.497 113.096 241.817 113.096ZM241.817 111.56C242.129 111.56 242.409 111.488 242.657 111.344C242.905 111.2 243.101 110.996 243.245 110.732C243.389 110.46 243.461 110.14 243.461 109.772C243.461 109.396 243.389 109.076 243.245 108.812C243.101 108.548 242.905 108.344 242.657 108.2C242.409 108.056 242.129 107.984 241.817 107.984C241.505 107.984 241.225 108.056 240.977 108.2C240.729 108.344 240.529 108.548 240.377 108.812C240.233 109.076 240.161 109.396 240.161 109.772C240.161 110.14 240.233 110.46 240.377 110.732C240.529 110.996 240.729 111.2 240.977 111.344C241.225 111.488 241.505 111.56 241.817 111.56ZM253.967 113V111.74L253.847 111.464V109.208C253.847 108.808 253.723 108.496 253.475 108.272C253.235 108.048 252.863 107.936 252.359 107.936C252.015 107.936 251.675 107.992 251.339 108.104C251.011 108.208 250.731 108.352 250.499 108.536L249.827 107.228C250.179 106.98 250.603 106.788 251.099 106.652C251.595 106.516 252.099 106.448 252.611 106.448C253.595 106.448 254.359 106.68 254.903 107.144C255.447 107.608 255.719 108.332 255.719 109.316V113H253.967ZM251.999 113.096C251.495 113.096 251.063 113.012 250.703 112.844C250.343 112.668 250.067 112.432 249.875 112.136C249.683 111.84 249.587 111.508 249.587 111.14C249.587 110.756 249.679 110.42 249.863 110.132C250.055 109.844 250.355 109.62 250.763 109.46C251.171 109.292 251.703 109.208 252.359 109.208H254.075V110.3H252.563C252.123 110.3 251.819 110.372 251.651 110.516C251.491 110.66 251.411 110.84 251.411 111.056C251.411 111.296 251.503 111.488 251.687 111.632C251.879 111.768 252.139 111.836 252.467 111.836C252.779 111.836 253.059 111.764 253.307 111.62C253.555 111.468 253.735 111.248 253.847 110.96L254.135 111.824C253.999 112.24 253.751 112.556 253.391 112.772C253.031 112.988 252.567 113.096 251.999 113.096ZM257.413 113V106.544H259.285V113H257.413ZM258.349 105.644C258.005 105.644 257.725 105.544 257.509 105.344C257.293 105.144 257.185 104.896 257.185 104.6C257.185 104.304 257.293 104.056 257.509 103.856C257.725 103.656 258.005 103.556 258.349 103.556C258.693 103.556 258.973 103.652 259.189 103.844C259.405 104.028 259.513 104.268 259.513 104.564C259.513 104.876 259.405 105.136 259.189 105.344C258.981 105.544 258.701 105.644 258.349 105.644ZM269.29 106.448C269.802 106.448 270.254 106.552 270.646 106.76C271.046 106.96 271.358 107.272 271.582 107.696C271.814 108.112 271.93 108.648 271.93 109.304V113H270.058V109.592C270.058 109.072 269.95 108.688 269.734 108.44C269.518 108.192 269.214 108.068 268.822 108.068C268.55 108.068 268.306 108.132 268.09 108.26C267.874 108.38 267.706 108.564 267.586 108.812C267.466 109.06 267.406 109.376 267.406 109.76V113H265.534V109.592C265.534 109.072 265.426 108.688 265.21 108.44C265.002 108.192 264.702 108.068 264.31 108.068C264.038 108.068 263.794 108.132 263.578 108.26C263.362 108.38 263.194 108.564 263.074 108.812C262.954 109.06 262.894 109.376 262.894 109.76V113H261.022V106.544H262.81V108.308L262.474 107.792C262.698 107.352 263.014 107.02 263.422 106.796C263.838 106.564 264.31 106.448 264.838 106.448C265.43 106.448 265.946 106.6 266.386 106.904C266.834 107.2 267.13 107.656 267.274 108.272L266.614 108.092C266.83 107.588 267.174 107.188 267.646 106.892C268.126 106.596 268.674 106.448 269.29 106.448ZM273.74 110.084L273.368 104.6H275.6L275.228 110.084H273.74ZM274.484 113.096C274.148 113.096 273.872 112.988 273.656 112.772C273.44 112.556 273.332 112.3 273.332 112.004C273.332 111.7 273.44 111.448 273.656 111.248C273.872 111.04 274.148 110.936 274.484 110.936C274.828 110.936 275.104 111.04 275.312 111.248C275.528 111.448 275.636 111.7 275.636 112.004C275.636 112.3 275.528 112.556 275.312 112.772C275.104 112.988 274.828 113.096 274.484 113.096Z" fill="white"/>
<rect x="320" y="20" width="130" height="34" rx="10" fill="white"/>
<path d="M342.947 43.256C342.009 43.256 341.102 43.1493 340.227 42.936C339.353 42.7227 338.633 42.4453 338.067 42.104L339.283 39.352C339.817 39.6613 340.409 39.912 341.059 40.104C341.721 40.2853 342.361 40.376 342.979 40.376C343.342 40.376 343.625 40.3547 343.827 40.312C344.041 40.2587 344.195 40.1893 344.291 40.104C344.387 40.008 344.435 39.896 344.435 39.768C344.435 39.5653 344.323 39.4053 344.099 39.288C343.875 39.1707 343.577 39.0747 343.203 39C342.841 38.9147 342.441 38.8293 342.003 38.744C341.566 38.648 341.123 38.5253 340.675 38.376C340.238 38.2267 339.833 38.0293 339.459 37.784C339.097 37.5387 338.803 37.2187 338.579 36.824C338.355 36.4187 338.243 35.9173 338.243 35.32C338.243 34.6267 338.435 33.9973 338.819 33.432C339.214 32.856 339.795 32.3973 340.563 32.056C341.342 31.7147 342.307 31.544 343.459 31.544C344.217 31.544 344.963 31.624 345.699 31.784C346.435 31.944 347.097 32.1893 347.683 32.52L346.547 35.256C345.993 34.9787 345.454 34.7707 344.931 34.632C344.419 34.4933 343.918 34.424 343.427 34.424C343.065 34.424 342.777 34.456 342.563 34.52C342.35 34.584 342.195 34.6693 342.099 34.776C342.014 34.8827 341.971 35 341.971 35.128C341.971 35.32 342.083 35.4747 342.307 35.592C342.531 35.6987 342.825 35.7893 343.187 35.864C343.561 35.9387 343.966 36.0187 344.403 36.104C344.851 36.1893 345.294 36.3067 345.731 36.456C346.169 36.6053 346.569 36.8027 346.931 37.048C347.305 37.2933 347.603 37.6133 347.827 38.008C348.051 38.4027 348.163 38.8933 348.163 39.48C348.163 40.1627 347.966 40.792 347.571 41.368C347.187 41.9333 346.611 42.392 345.843 42.744C345.075 43.0853 344.11 43.256 342.947 43.256ZM349.287 43V31.8H354.679C355.724 31.8 356.626 31.9707 357.383 32.312C358.151 32.6533 358.743 33.144 359.159 33.784C359.575 34.4133 359.783 35.16 359.783 36.024C359.783 36.888 359.575 37.6347 359.159 38.264C358.743 38.8933 358.151 39.384 357.383 39.736C356.626 40.0773 355.724 40.248 354.679 40.248H351.383L353.063 38.632V43H349.287ZM353.063 39.048L351.383 37.336H354.439C354.962 37.336 355.346 37.2187 355.591 36.984C355.847 36.7493 355.975 36.4293 355.975 36.024C355.975 35.6187 355.847 35.2987 355.591 35.064C355.346 34.8293 354.962 34.712 354.439 34.712H351.383L353.063 33V39.048ZM359.243 43L364.139 31.8H367.851L372.747 43H368.843L365.227 33.592H366.699L363.083 43H359.243ZM362.155 41.048L363.115 38.328H368.267L369.227 41.048H362.155ZM378.985 43.256C378.089 43.256 377.257 43.1173 376.489 42.84C375.732 42.552 375.071 42.1467 374.505 41.624C373.951 41.1013 373.519 40.4827 373.209 39.768C372.9 39.0533 372.745 38.264 372.745 37.4C372.745 36.536 372.9 35.7467 373.209 35.032C373.519 34.3173 373.951 33.6987 374.505 33.176C375.071 32.6533 375.732 32.2533 376.489 31.976C377.257 31.688 378.089 31.544 378.985 31.544C380.084 31.544 381.055 31.736 381.897 32.12C382.751 32.504 383.455 33.0587 384.009 33.784L381.625 35.912C381.295 35.496 380.927 35.176 380.521 34.952C380.127 34.7173 379.679 34.6 379.177 34.6C378.783 34.6 378.425 34.664 378.105 34.792C377.785 34.92 377.508 35.1067 377.273 35.352C377.049 35.5973 376.873 35.896 376.745 36.248C376.617 36.5893 376.553 36.9733 376.553 37.4C376.553 37.8267 376.617 38.216 376.745 38.568C376.873 38.9093 377.049 39.2027 377.273 39.448C377.508 39.6933 377.785 39.88 378.105 40.008C378.425 40.136 378.783 40.2 379.177 40.2C379.679 40.2 380.127 40.088 380.521 39.864C380.927 39.6293 381.295 39.304 381.625 38.888L384.009 41.016C383.455 41.7307 382.751 42.2853 381.897 42.68C381.055 43.064 380.084 43.256 378.985 43.256ZM388.556 35.96H393.548V38.68H388.556V35.96ZM388.812 40.152H394.412V43H385.1V31.8H394.204V34.648H388.812V40.152ZM395.865 43V31.8H401.849C403.396 31.8 404.537 32.0773 405.273 32.632C406.009 33.176 406.377 33.8747 406.377 34.728C406.377 35.2933 406.217 35.8 405.897 36.248C405.588 36.6853 405.134 37.032 404.537 37.288C403.94 37.544 403.204 37.672 402.329 37.672L402.649 36.808C403.524 36.808 404.276 36.9307 404.905 37.176C405.545 37.4213 406.036 37.7787 406.377 38.248C406.729 38.7067 406.905 39.2613 406.905 39.912C406.905 40.8827 406.5 41.64 405.689 42.184C404.889 42.728 403.716 43 402.169 43H395.865ZM399.577 40.36H401.849C402.265 40.36 402.574 40.2853 402.777 40.136C402.99 39.9867 403.097 39.768 403.097 39.48C403.097 39.192 402.99 38.9733 402.777 38.824C402.574 38.6747 402.265 38.6 401.849 38.6H399.321V36.104H401.337C401.764 36.104 402.073 36.0347 402.265 35.896C402.468 35.7467 402.569 35.5387 402.569 35.272C402.569 34.9947 402.468 34.7867 402.265 34.648C402.073 34.5093 401.764 34.44 401.337 34.44H399.577V40.36ZM407.024 43L411.92 31.8H415.632L420.528 43H416.624L413.008 33.592H414.48L410.864 43H407.024ZM409.936 41.048L410.896 38.328H416.048L417.008 41.048H409.936ZM421.131 43V31.8H426.523C427.568 31.8 428.469 31.9707 429.227 32.312C429.995 32.6533 430.587 33.144 431.003 33.784C431.419 34.4133 431.627 35.16 431.627 36.024C431.627 36.888 431.419 37.6347 431.003 38.264C430.587 38.8827 429.995 39.3573 429.227 39.688C428.469 40.0187 427.568 40.184 426.523 40.184H423.227L424.907 38.632V43H421.131ZM427.835 43L425.083 38.92H429.083L431.867 43H427.835ZM424.907 39.048L423.227 37.336H426.283C426.805 37.336 427.189 37.2187 427.435 36.984C427.691 36.7493 427.819 36.4293 427.819 36.024C427.819 35.6187 427.691 35.2987 427.435 35.064C427.189 34.8293 426.805 34.712 426.283 34.712H423.227L424.907 33V39.048Z" fill="black"/>
<path d="M335.797 89.6H337.741V98H335.797V89.6ZM331.981 98H330.037V89.6H331.981V98ZM335.941 94.556H331.837V92.912H335.941V94.556ZM339.596 98V91.544H341.468V98H339.596ZM340.532 90.644C340.188 90.644 339.908 90.544 339.692 90.344C339.476 90.144 339.368 89.896 339.368 89.6C339.368 89.304 339.476 89.056 339.692 88.856C339.908 88.656 340.188 88.556 340.532 88.556C340.876 88.556 341.156 88.652 341.372 88.844C341.588 89.028 341.696 89.268 341.696 89.564C341.696 89.876 341.588 90.136 341.372 90.344C341.164 90.544 340.884 90.644 340.532 90.644ZM345.846 98.096C345.086 98.096 344.494 97.904 344.07 97.52C343.646 97.128 343.434 96.548 343.434 95.78V90.116H345.306V95.756C345.306 96.028 345.378 96.24 345.522 96.392C345.666 96.536 345.862 96.608 346.11 96.608C346.406 96.608 346.658 96.528 346.866 96.368L347.37 97.688C347.178 97.824 346.946 97.928 346.674 98C346.41 98.064 346.134 98.096 345.846 98.096ZM342.438 93.128V91.688H346.914V93.128H342.438ZM352.635 100.424C352.299 100.424 351.967 100.372 351.639 100.268C351.311 100.164 351.043 100.02 350.835 99.836L351.519 98.504C351.663 98.632 351.827 98.732 352.011 98.804C352.203 98.876 352.391 98.912 352.575 98.912C352.839 98.912 353.047 98.848 353.199 98.72C353.359 98.6 353.503 98.396 353.631 98.108L353.967 97.316L354.111 97.112L356.427 91.544H358.227L355.311 98.396C355.103 98.916 354.863 99.324 354.591 99.62C354.327 99.916 354.031 100.124 353.703 100.244C353.383 100.364 353.027 100.424 352.635 100.424ZM353.739 98.252L350.859 91.544H352.791L355.023 96.944L353.739 98.252ZM361.887 98.096C361.199 98.096 360.587 97.952 360.051 97.664C359.523 97.376 359.103 96.984 358.791 96.488C358.487 95.984 358.335 95.412 358.335 94.772C358.335 94.124 358.487 93.552 358.791 93.056C359.103 92.552 359.523 92.16 360.051 91.88C360.587 91.592 361.199 91.448 361.887 91.448C362.567 91.448 363.175 91.592 363.711 91.88C364.247 92.16 364.667 92.548 364.971 93.044C365.275 93.54 365.427 94.116 365.427 94.772C365.427 95.412 365.275 95.984 364.971 96.488C364.667 96.984 364.247 97.376 363.711 97.664C363.175 97.952 362.567 98.096 361.887 98.096ZM361.887 96.56C362.199 96.56 362.479 96.488 362.727 96.344C362.975 96.2 363.171 95.996 363.315 95.732C363.459 95.46 363.531 95.14 363.531 94.772C363.531 94.396 363.459 94.076 363.315 93.812C363.171 93.548 362.975 93.344 362.727 93.2C362.479 93.056 362.199 92.984 361.887 92.984C361.575 92.984 361.295 93.056 361.047 93.2C360.799 93.344 360.599 93.548 360.447 93.812C360.303 94.076 360.231 94.396 360.231 94.772C360.231 95.14 360.303 95.46 360.447 95.732C360.599 95.996 360.799 96.2 361.047 96.344C361.295 96.488 361.575 96.56 361.887 96.56ZM369.402 98.096C368.866 98.096 368.386 97.992 367.962 97.784C367.546 97.576 367.222 97.26 366.99 96.836C366.758 96.404 366.642 95.856 366.642 95.192V91.544H368.514V94.916C368.514 95.452 368.626 95.848 368.85 96.104C369.082 96.352 369.406 96.476 369.822 96.476C370.11 96.476 370.366 96.416 370.59 96.296C370.814 96.168 370.99 95.976 371.118 95.72C371.246 95.456 371.31 95.128 371.31 94.736V91.544H373.182V98H371.406V96.224L371.73 96.74C371.514 97.188 371.194 97.528 370.77 97.76C370.354 97.984 369.898 98.096 369.402 98.096ZM374.917 98V91.544H376.705V93.368L376.453 92.84C376.645 92.384 376.953 92.04 377.377 91.808C377.801 91.568 378.317 91.448 378.925 91.448V93.176C378.845 93.168 378.773 93.164 378.709 93.164C378.645 93.156 378.577 93.152 378.505 93.152C377.993 93.152 377.577 93.3 377.257 93.596C376.945 93.884 376.789 94.336 376.789 94.952V98H374.917ZM385.655 98.096C385.103 98.096 384.571 98.032 384.059 97.904C383.555 97.768 383.155 97.6 382.859 97.4L383.483 96.056C383.779 96.24 384.127 96.392 384.527 96.512C384.935 96.624 385.335 96.68 385.727 96.68C386.159 96.68 386.463 96.628 386.639 96.524C386.823 96.42 386.915 96.276 386.915 96.092C386.915 95.94 386.843 95.828 386.699 95.756C386.563 95.676 386.379 95.616 386.147 95.576C385.915 95.536 385.659 95.496 385.379 95.456C385.107 95.416 384.831 95.364 384.551 95.3C384.271 95.228 384.015 95.124 383.783 94.988C383.551 94.852 383.363 94.668 383.219 94.436C383.083 94.204 383.015 93.904 383.015 93.536C383.015 93.128 383.131 92.768 383.363 92.456C383.603 92.144 383.947 91.9 384.395 91.724C384.843 91.54 385.379 91.448 386.003 91.448C386.443 91.448 386.891 91.496 387.347 91.592C387.803 91.688 388.183 91.828 388.487 92.012L387.863 93.344C387.551 93.16 387.235 93.036 386.915 92.972C386.603 92.9 386.299 92.864 386.003 92.864C385.587 92.864 385.283 92.92 385.091 93.032C384.899 93.144 384.803 93.288 384.803 93.464C384.803 93.624 384.871 93.744 385.007 93.824C385.151 93.904 385.339 93.968 385.571 94.016C385.803 94.064 386.055 94.108 386.327 94.148C386.607 94.18 386.887 94.232 387.167 94.304C387.447 94.376 387.699 94.48 387.923 94.616C388.155 94.744 388.343 94.924 388.487 95.156C388.631 95.38 388.703 95.676 388.703 96.044C388.703 96.444 388.583 96.8 388.343 97.112C388.103 97.416 387.755 97.656 387.299 97.832C386.851 98.008 386.303 98.096 385.655 98.096ZM393.674 98.096C393.13 98.096 392.654 97.976 392.246 97.736C391.838 97.496 391.518 97.132 391.286 96.644C391.062 96.148 390.95 95.524 390.95 94.772C390.95 94.012 391.058 93.388 391.274 92.9C391.49 92.412 391.802 92.048 392.21 91.808C392.618 91.568 393.106 91.448 393.674 91.448C394.282 91.448 394.826 91.588 395.306 91.868C395.794 92.14 396.178 92.524 396.458 93.02C396.746 93.516 396.89 94.1 396.89 94.772C396.89 95.452 396.746 96.04 396.458 96.536C396.178 97.032 395.794 97.416 395.306 97.688C394.826 97.96 394.282 98.096 393.674 98.096ZM389.858 100.328V91.544H391.646V92.864L391.61 94.784L391.73 96.692V100.328H389.858ZM393.35 96.56C393.662 96.56 393.938 96.488 394.178 96.344C394.426 96.2 394.622 95.996 394.766 95.732C394.918 95.46 394.994 95.14 394.994 94.772C394.994 94.396 394.918 94.076 394.766 93.812C394.622 93.548 394.426 93.344 394.178 93.2C393.938 93.056 393.662 92.984 393.35 92.984C393.038 92.984 392.758 93.056 392.51 93.2C392.262 93.344 392.066 93.548 391.922 93.812C391.778 94.076 391.706 94.396 391.706 94.772C391.706 95.14 391.778 95.46 391.922 95.732C392.066 95.996 392.262 96.2 392.51 96.344C392.758 96.488 393.038 96.56 393.35 96.56ZM401.998 98V96.74L401.878 96.464V94.208C401.878 93.808 401.754 93.496 401.506 93.272C401.266 93.048 400.894 92.936 400.39 92.936C400.046 92.936 399.706 92.992 399.37 93.104C399.042 93.208 398.762 93.352 398.53 93.536L397.858 92.228C398.21 91.98 398.634 91.788 399.13 91.652C399.626 91.516 400.13 91.448 400.642 91.448C401.626 91.448 402.39 91.68 402.934 92.144C403.478 92.608 403.75 93.332 403.75 94.316V98H401.998ZM400.03 98.096C399.526 98.096 399.094 98.012 398.734 97.844C398.374 97.668 398.098 97.432 397.906 97.136C397.714 96.84 397.618 96.508 397.618 96.14C397.618 95.756 397.71 95.42 397.894 95.132C398.086 94.844 398.386 94.62 398.794 94.46C399.202 94.292 399.734 94.208 400.39 94.208H402.106V95.3H400.594C400.154 95.3 399.85 95.372 399.682 95.516C399.522 95.66 399.442 95.84 399.442 96.056C399.442 96.296 399.534 96.488 399.718 96.632C399.91 96.768 400.17 96.836 400.498 96.836C400.81 96.836 401.09 96.764 401.338 96.62C401.586 96.468 401.766 96.248 401.878 95.96L402.166 96.824C402.03 97.24 401.782 97.556 401.422 97.772C401.062 97.988 400.598 98.096 400.03 98.096ZM408.611 98.096C407.915 98.096 407.295 97.956 406.751 97.676C406.207 97.388 405.779 96.992 405.467 96.488C405.163 95.984 405.011 95.412 405.011 94.772C405.011 94.124 405.163 93.552 405.467 93.056C405.779 92.552 406.207 92.16 406.751 91.88C407.295 91.592 407.915 91.448 408.611 91.448C409.291 91.448 409.883 91.592 410.387 91.88C410.891 92.16 411.263 92.564 411.503 93.092L410.051 93.872C409.883 93.568 409.671 93.344 409.415 93.2C409.167 93.056 408.895 92.984 408.599 92.984C408.279 92.984 407.991 93.056 407.735 93.2C407.479 93.344 407.275 93.548 407.123 93.812C406.979 94.076 406.907 94.396 406.907 94.772C406.907 95.148 406.979 95.468 407.123 95.732C407.275 95.996 407.479 96.2 407.735 96.344C407.991 96.488 408.279 96.56 408.599 96.56C408.895 96.56 409.167 96.492 409.415 96.356C409.671 96.212 409.883 95.984 410.051 95.672L411.503 96.464C411.263 96.984 410.891 97.388 410.387 97.676C409.883 97.956 409.291 98.096 408.611 98.096ZM415.703 98.096C414.967 98.096 414.319 97.952 413.759 97.664C413.207 97.376 412.779 96.984 412.475 96.488C412.171 95.984 412.019 95.412 412.019 94.772C412.019 94.124 412.167 93.552 412.463 93.056C412.767 92.552 413.179 92.16 413.699 91.88C414.219 91.592 414.807 91.448 415.463 91.448C416.095 91.448 416.663 91.584 417.167 91.856C417.679 92.12 418.083 92.504 418.379 93.008C418.675 93.504 418.823 94.1 418.823 94.796C418.823 94.868 418.819 94.952 418.811 95.048C418.803 95.136 418.795 95.22 418.787 95.3H413.543V94.208H417.803L417.083 94.532C417.083 94.196 417.015 93.904 416.879 93.656C416.743 93.408 416.555 93.216 416.315 93.08C416.075 92.936 415.795 92.864 415.475 92.864C415.155 92.864 414.871 92.936 414.623 93.08C414.383 93.216 414.195 93.412 414.059 93.668C413.923 93.916 413.855 94.212 413.855 94.556V94.844C413.855 95.196 413.931 95.508 414.083 95.78C414.243 96.044 414.463 96.248 414.743 96.392C415.031 96.528 415.367 96.596 415.751 96.596C416.095 96.596 416.395 96.544 416.651 96.44C416.915 96.336 417.155 96.18 417.371 95.972L418.367 97.052C418.071 97.388 417.699 97.648 417.251 97.832C416.803 98.008 416.287 98.096 415.703 98.096ZM423.885 98.096C423.317 98.096 422.829 97.976 422.421 97.736C422.013 97.496 421.701 97.132 421.485 96.644C421.269 96.148 421.161 95.524 421.161 94.772C421.161 94.012 421.273 93.388 421.497 92.9C421.729 92.412 422.049 92.048 422.457 91.808C422.865 91.568 423.341 91.448 423.885 91.448C424.493 91.448 425.037 91.584 425.517 91.856C426.005 92.128 426.389 92.512 426.669 93.008C426.957 93.504 427.101 94.092 427.101 94.772C427.101 95.444 426.957 96.028 426.669 96.524C426.389 97.02 426.005 97.408 425.517 97.688C425.037 97.96 424.493 98.096 423.885 98.096ZM420.069 98V89.096H421.941V92.852L421.821 94.76L421.857 96.68V98H420.069ZM423.561 96.56C423.873 96.56 424.149 96.488 424.389 96.344C424.637 96.2 424.833 95.996 424.977 95.732C425.129 95.46 425.205 95.14 425.205 94.772C425.205 94.396 425.129 94.076 424.977 93.812C424.833 93.548 424.637 93.344 424.389 93.2C424.149 93.056 423.873 92.984 423.561 92.984C423.249 92.984 422.969 93.056 422.721 93.2C422.473 93.344 422.277 93.548 422.133 93.812C421.989 94.076 421.917 94.396 421.917 94.772C421.917 95.14 421.989 95.46 422.133 95.732C422.277 95.996 422.473 96.2 422.721 96.344C422.969 96.488 423.249 96.56 423.561 96.56ZM432.209 98V96.74L432.089 96.464V94.208C432.089 93.808 431.965 93.496 431.717 93.272C431.477 93.048 431.105 92.936 430.601 92.936C430.257 92.936 429.917 92.992 429.581 93.104C429.253 93.208 428.973 93.352 428.741 93.536L428.069 92.228C428.421 91.98 428.845 91.788 429.341 91.652C429.837 91.516 430.341 91.448 430.853 91.448C431.837 91.448 432.601 91.68 433.145 92.144C433.689 92.608 433.961 93.332 433.961 94.316V98H432.209ZM430.241 98.096C429.737 98.096 429.305 98.012 428.945 97.844C428.585 97.668 428.309 97.432 428.117 97.136C427.925 96.84 427.829 96.508 427.829 96.14C427.829 95.756 427.921 95.42 428.105 95.132C428.297 94.844 428.597 94.62 429.005 94.46C429.413 94.292 429.945 94.208 430.601 94.208H432.317V95.3H430.805C430.365 95.3 430.061 95.372 429.893 95.516C429.733 95.66 429.653 95.84 429.653 96.056C429.653 96.296 429.745 96.488 429.929 96.632C430.121 96.768 430.381 96.836 430.709 96.836C431.021 96.836 431.301 96.764 431.549 96.62C431.797 96.468 431.977 96.248 432.089 95.96L432.377 96.824C432.241 97.24 431.993 97.556 431.633 97.772C431.273 97.988 430.809 98.096 430.241 98.096ZM435.655 98V91.544H437.443V93.368L437.191 92.84C437.383 92.384 437.691 92.04 438.115 91.808C438.539 91.568 439.055 91.448 439.663 91.448V93.176C439.583 93.168 439.511 93.164 439.447 93.164C439.383 93.156 439.315 93.152 439.243 93.152C438.731 93.152 438.315 93.3 437.995 93.596C437.683 93.884 437.527 94.336 437.527 94.952V98H435.655ZM360.301 113.096C359.541 113.096 358.949 112.904 358.525 112.52C358.101 112.128 357.889 111.548 357.889 110.78V105.116H359.761V110.756C359.761 111.028 359.833 111.24 359.977 111.392C360.121 111.536 360.317 111.608 360.565 111.608C360.861 111.608 361.113 111.528 361.321 111.368L361.825 112.688C361.633 112.824 361.401 112.928 361.129 113C360.865 113.064 360.589 113.096 360.301 113.096ZM356.893 108.128V106.688H361.369V108.128H356.893ZM365.749 113.096C365.061 113.096 364.449 112.952 363.913 112.664C363.385 112.376 362.965 111.984 362.653 111.488C362.349 110.984 362.197 110.412 362.197 109.772C362.197 109.124 362.349 108.552 362.653 108.056C362.965 107.552 363.385 107.16 363.913 106.88C364.449 106.592 365.061 106.448 365.749 106.448C366.429 106.448 367.037 106.592 367.573 106.88C368.109 107.16 368.529 107.548 368.833 108.044C369.137 108.54 369.289 109.116 369.289 109.772C369.289 110.412 369.137 110.984 368.833 111.488C368.529 111.984 368.109 112.376 367.573 112.664C367.037 112.952 366.429 113.096 365.749 113.096ZM365.749 111.56C366.061 111.56 366.341 111.488 366.589 111.344C366.837 111.2 367.033 110.996 367.177 110.732C367.321 110.46 367.393 110.14 367.393 109.772C367.393 109.396 367.321 109.076 367.177 108.812C367.033 108.548 366.837 108.344 366.589 108.2C366.341 108.056 366.061 107.984 365.749 107.984C365.437 107.984 365.157 108.056 364.909 108.2C364.661 108.344 364.461 108.548 364.309 108.812C364.165 109.076 364.093 109.396 364.093 109.772C364.093 110.14 364.165 110.46 364.309 110.732C364.461 110.996 364.661 111.2 364.909 111.344C365.157 111.488 365.437 111.56 365.749 111.56ZM376.11 113.096C375.558 113.096 375.026 113.032 374.514 112.904C374.01 112.768 373.61 112.6 373.314 112.4L373.938 111.056C374.234 111.24 374.582 111.392 374.982 111.512C375.39 111.624 375.79 111.68 376.182 111.68C376.614 111.68 376.918 111.628 377.094 111.524C377.278 111.42 377.37 111.276 377.37 111.092C377.37 110.94 377.298 110.828 377.154 110.756C377.018 110.676 376.834 110.616 376.602 110.576C376.37 110.536 376.114 110.496 375.834 110.456C375.562 110.416 375.286 110.364 375.006 110.3C374.726 110.228 374.47 110.124 374.238 109.988C374.006 109.852 373.818 109.668 373.674 109.436C373.538 109.204 373.47 108.904 373.47 108.536C373.47 108.128 373.586 107.768 373.818 107.456C374.058 107.144 374.402 106.9 374.85 106.724C375.298 106.54 375.834 106.448 376.458 106.448C376.898 106.448 377.346 106.496 377.802 106.592C378.258 106.688 378.638 106.828 378.942 107.012L378.318 108.344C378.006 108.16 377.69 108.036 377.37 107.972C377.058 107.9 376.754 107.864 376.458 107.864C376.042 107.864 375.738 107.92 375.546 108.032C375.354 108.144 375.258 108.288 375.258 108.464C375.258 108.624 375.326 108.744 375.462 108.824C375.606 108.904 375.794 108.968 376.026 109.016C376.258 109.064 376.51 109.108 376.782 109.148C377.062 109.18 377.342 109.232 377.622 109.304C377.902 109.376 378.154 109.48 378.378 109.616C378.61 109.744 378.798 109.924 378.942 110.156C379.086 110.38 379.158 110.676 379.158 111.044C379.158 111.444 379.038 111.8 378.798 112.112C378.558 112.416 378.21 112.656 377.754 112.832C377.306 113.008 376.758 113.096 376.11 113.096ZM384.237 106.448C384.749 106.448 385.205 106.552 385.605 106.76C386.013 106.96 386.333 107.272 386.565 107.696C386.797 108.112 386.913 108.648 386.913 109.304V113H385.041V109.592C385.041 109.072 384.925 108.688 384.693 108.44C384.469 108.192 384.149 108.068 383.733 108.068C383.437 108.068 383.169 108.132 382.929 108.26C382.697 108.38 382.513 108.568 382.377 108.824C382.249 109.08 382.185 109.408 382.185 109.808V113H380.313V104.096H382.185V108.332L381.765 107.792C381.997 107.36 382.329 107.028 382.761 106.796C383.193 106.564 383.685 106.448 384.237 106.448ZM391.729 113.096C391.041 113.096 390.429 112.952 389.893 112.664C389.365 112.376 388.945 111.984 388.633 111.488C388.329 110.984 388.177 110.412 388.177 109.772C388.177 109.124 388.329 108.552 388.633 108.056C388.945 107.552 389.365 107.16 389.893 106.88C390.429 106.592 391.041 106.448 391.729 106.448C392.409 106.448 393.017 106.592 393.553 106.88C394.089 107.16 394.509 107.548 394.813 108.044C395.117 108.54 395.269 109.116 395.269 109.772C395.269 110.412 395.117 110.984 394.813 111.488C394.509 111.984 394.089 112.376 393.553 112.664C393.017 112.952 392.409 113.096 391.729 113.096ZM391.729 111.56C392.041 111.56 392.321 111.488 392.569 111.344C392.817 111.2 393.013 110.996 393.157 110.732C393.301 110.46 393.373 110.14 393.373 109.772C393.373 109.396 393.301 109.076 393.157 108.812C393.013 108.548 392.817 108.344 392.569 108.2C392.321 108.056 392.041 107.984 391.729 107.984C391.417 107.984 391.137 108.056 390.889 108.2C390.641 108.344 390.441 108.548 390.289 108.812C390.145 109.076 390.073 109.396 390.073 109.772C390.073 110.14 390.145 110.46 390.289 110.732C390.441 110.996 390.641 111.2 390.889 111.344C391.137 111.488 391.417 111.56 391.729 111.56ZM399.592 113.096C398.904 113.096 398.292 112.952 397.756 112.664C397.228 112.376 396.808 111.984 396.496 111.488C396.192 110.984 396.04 110.412 396.04 109.772C396.04 109.124 396.192 108.552 396.496 108.056C396.808 107.552 397.228 107.16 397.756 106.88C398.292 106.592 398.904 106.448 399.592 106.448C400.272 106.448 400.88 106.592 401.416 106.88C401.952 107.16 402.372 107.548 402.676 108.044C402.98 108.54 403.132 109.116 403.132 109.772C403.132 110.412 402.98 110.984 402.676 111.488C402.372 111.984 401.952 112.376 401.416 112.664C400.88 112.952 400.272 113.096 399.592 113.096ZM399.592 111.56C399.904 111.56 400.184 111.488 400.432 111.344C400.68 111.2 400.876 110.996 401.02 110.732C401.164 110.46 401.236 110.14 401.236 109.772C401.236 109.396 401.164 109.076 401.02 108.812C400.876 108.548 400.68 108.344 400.432 108.2C400.184 108.056 399.904 107.984 399.592 107.984C399.28 107.984 399 108.056 398.752 108.2C398.504 108.344 398.304 108.548 398.152 108.812C398.008 109.076 397.936 109.396 397.936 109.772C397.936 110.14 398.008 110.46 398.152 110.732C398.304 110.996 398.504 111.2 398.752 111.344C399 111.488 399.28 111.56 399.592 111.56ZM407.024 113.096C406.264 113.096 405.672 112.904 405.248 112.52C404.824 112.128 404.612 111.548 404.612 110.78V105.116H406.484V110.756C406.484 111.028 406.556 111.24 406.7 111.392C406.844 111.536 407.04 111.608 407.288 111.608C407.584 111.608 407.836 111.528 408.044 111.368L408.548 112.688C408.356 112.824 408.124 112.928 407.852 113C407.588 113.064 407.312 113.096 407.024 113.096ZM403.616 108.128V106.688H408.092V108.128H403.616ZM409.73 110.084L409.358 104.6H411.59L411.218 110.084H409.73ZM410.474 113.096C410.138 113.096 409.862 112.988 409.646 112.772C409.43 112.556 409.322 112.3 409.322 112.004C409.322 111.7 409.43 111.448 409.646 111.248C409.862 111.04 410.138 110.936 410.474 110.936C410.818 110.936 411.094 111.04 411.302 111.248C411.518 111.448 411.626 111.7 411.626 112.004C411.626 112.3 411.518 112.556 411.302 112.772C411.094 112.988 410.818 113.096 410.474 113.096Z" fill="white"/>
</svg>
